<?xml version="1.0" encoding="utf-8"?>
<!-- Generator: Adobe Illustrator 27.0.0, SVG Export Plug-In . SVG Version: 6.00 Build 0)  -->
<svg version="1.1" id="Layer_1" xmlns="http://www.w3.org/2000/svg" xmlns:xlink="http://www.w3.org/1999/xlink" x="0px" y="0px"
	 viewBox="0 0 1000 1000" style="enable-background:new 0 0 1000 1000;" xml:space="preserve">
<style type="text/css">
	.st0{fill:#FFFFFF;}
	.st1{fill:#C7B8F8;}
	.st2{fill:#6DC8C2;}
	.st3{fill:#FFBB45;}
	.st4{fill:#FB6D6D;}
	.st5{fill:#FFC1EB;}
</style>
<path d="M505.5,863.6l125.6-13.1c2.9-0.3,5.4,1.8,5.7,4.6l1.4,13.2c0.3,2.9-1.8,5.4-4.6,5.7L508,887.2c-2.9,0.3-5.4-1.8-5.7-4.6
	l-1.4-13.2C500.6,866.5,502.7,863.9,505.5,863.6z"/>
<path d="M639.2,782l-88.3-0.6l-120,59.1c-8.1,4-11.4,13.7-7.5,21.8l218.9-32.5L639.2,782z"/>
<path class="st0" d="M640.2,830.7l-213.9,32.6c3,6.3,9.7,10,16.7,9.1l183.9-23.7c8.1-1,13.9-8.2,13.4-16.3L640.2,830.7z"/>
<path d="M440.9,875c-7.2,0-13.8-4.2-16.9-10.7l-1.5-3.1l220.1-33.5l0.3,4.4c0.6,9.5-6.3,17.8-15.7,19l-184,23.7
	C442.5,875,441.7,875,440.9,875z M430.5,865.2c3,3.5,7.5,5.2,12.1,4.6l183.9-23.7c6.3-0.8,11-6.1,11.2-12.4L430.5,865.2z"/>
<path class="st0" d="M538.2,823c-0.7,0-1.4-0.3-1.9-0.8l-19.4-21c-1-1-0.9-2.7,0.1-3.6c0,0,0,0,0,0c1-1,2.6-0.9,3.6,0.1l19.4,21
	c1,1,0.9,2.6-0.1,3.6c0,0,0,0,0,0C539.4,822.7,538.8,823,538.2,823z"/>
<path class="st0" d="M518.4,834.5c-0.7,0-1.4-0.3-1.9-0.8l-19.4-21c-1-1-1-2.6,0-3.6c1-1,2.6-1,3.6,0c0,0,0.1,0.1,0.1,0.1l19.4,21
	c1,1,0.9,2.7-0.1,3.6c0,0,0,0,0,0C519.7,834.2,519,834.5,518.4,834.5z"/>
<path class="st1" d="M621.8,790.5h-53.6c-16.5,0-29.9-13.4-29.9-29.9V456.5h113.3v304.1C651.6,777.1,638.3,790.4,621.8,790.5z"/>
<path d="M944,941.6H705.6c-1.4,0-2.6-1.1-2.6-2.6s1.1-2.6,2.6-2.6H944c1.4,0,2.6,1.1,2.6,2.6S945.4,941.6,944,941.6z"/>
<path d="M251.3,941.3h-93.9c-1.4,0-2.6-1.1-2.6-2.6s1.1-2.6,2.6-2.6h93.9c1.4,0,2.6,1.1,2.6,2.6S252.7,941.3,251.3,941.3z"/>
<path d="M888.9,898.4H787.8c-1.4,0-2.6-1.1-2.6-2.6s1.1-2.6,2.6-2.6h101.1c1.4,0,2.6,1.1,2.6,2.6S890.3,898.4,888.9,898.4z"/>
<path d="M814,657.1c-1.4,0-2.6-1.1-2.6-2.6c0-0.8,0.4-1.5,1-2l65.2-52.3c1.1-0.9,2.7-0.8,3.6,0.3s0.8,2.7-0.3,3.6
	c0,0-0.1,0.1-0.1,0.1l-65.2,52.3C815.2,656.9,814.6,657.1,814,657.1z"/>
<path class="st0" d="M626.6,226h76.5c7,0,12.7,5.7,12.7,12.7v48.7c0,7-5.7,12.7-12.7,12.7h-76.5c-7,0-12.7-5.7-12.7-12.7v-48.7
	C614,231.6,619.6,226,626.6,226z"/>
<path d="M703.2,302.5h-76.6c-8.4,0-15.2-6.8-15.2-15.2v-48.7c0-8.4,6.8-15.2,15.2-15.2h76.6c8.4,0,15.2,6.8,15.2,15.2v48.7
	C718.4,295.7,711.6,302.5,703.2,302.5z M626.6,228.5c-5.6,0-10.1,4.5-10.1,10.1v48.7c0,5.6,4.5,10.1,10.1,10.1h76.6
	c5.6,0,10.1-4.5,10.1-10.1v-48.7c0-5.6-4.5-10.1-10.1-10.1L626.6,228.5z"/>
<path class="st0" d="M694,244.9l38.3-66.3c3.5-6.1,11.2-8.1,17.3-4.6l42.2,24.3c6.1,3.5,8.1,11.2,4.6,17.3L758.1,282
	c-3.5,6.1-11.2,8.1-17.3,4.6l-42.2-24.3C692.6,258.8,690.5,251,694,244.9z"/>
<path d="M747.1,290.8c-2.7,0-5.3-0.7-7.6-2l-42.1-24.3c-7.3-4.2-9.8-13.5-5.6-20.8c0,0,0,0,0,0l38.3-66.3c4.2-7.3,13.5-9.8,20.8-5.6
	c0,0,0,0,0.1,0l42.1,24.3c7.3,4.2,9.8,13.5,5.6,20.8l-38.3,66.3C757.6,287.9,752.6,290.8,747.1,290.8z M742.1,284.4
	c4.8,2.8,11,1.1,13.8-3.7l38.3-66.3c2.8-4.8,1.1-11-3.7-13.8l-42.1-24.3c-4.8-2.8-11-1.1-13.8,3.7c0,0,0,0,0,0l-38.3,66.3
	c-2.8,4.8-1.2,11,3.7,13.8c0,0,0,0,0,0L742.1,284.4z"/>
<path d="M750.5,229.1c-1.4,0-2.6-1.1-2.6-2.6c0-0.9,0.5-1.8,1.4-2.3l45.6-23.9c1.3-0.7,2.8-0.2,3.5,1.1c0.7,1.3,0.2,2.8-1.1,3.5
	l-45.6,23.9C751.4,229,751,229.1,750.5,229.1z"/>
<path class="st0" d="M667.2,271.3l57.1-50.9c5.2-4.7,13.2-4.2,17.9,1l32.4,36.3c4.7,5.2,4.2,13.2-1,17.9l-57.1,50.9
	c-5.2,4.7-13.2,4.2-17.9-1l-32.4-36.3C661.5,283.9,662,275.9,667.2,271.3z"/>
<path d="M708.1,332.3c-0.3,0-0.6,0-0.9,0c-4-0.2-7.8-2.1-10.5-5.1l0,0l-32.3-36.3c-5.6-6.3-5-15.9,1.3-21.5c0,0,0,0,0,0l57.1-50.9
	c6.3-5.6,15.9-5,21.5,1.3l32.4,36.3c5.6,6.3,5,15.9-1.3,21.5c0,0,0,0,0,0l-57.2,50.9C715.4,330.9,711.8,332.3,708.1,332.3z
	 M732.8,219.7c-2.5,0-4.9,0.9-6.7,2.6l-57.1,50.9c-4.2,3.7-4.5,10.1-0.8,14.3l32.4,36.3c3.7,4.2,10.1,4.5,14.3,0.8c0,0,0,0,0,0
	l57.1-50.9c4.2-3.7,4.5-10.1,0.8-14.3c0,0,0,0,0,0l-32.4-36.3c-1.8-2-4.3-3.2-7-3.4H732.8z"/>
<path d="M699,767.1h-0.2l-208.6-17.4l-0.6-0.5L213.5,531.7c-1.2-0.9-1.4-2.7-0.5-3.9c0.5-0.7,1.4-1.1,2.2-1.1h402.1l98.1,219.4
	c0.6,1.3,0,2.8-1.3,3.4c-1.3,0.6-2.8,0-3.4-1.3l-96.8-216.4h-392l270.3,212.8L699.2,762c1.4,0.1,2.5,1.2,2.5,2.7
	C701.6,766.1,700.4,767.2,699,767.1L699,767.1z"/>
<path d="M491.2,749.8c-0.4,0-0.9-0.1-1.3-0.3c-1.2-0.7-1.7-2.3-1-3.5c0,0,0,0,0,0l151.1-264.9c0.7-1.2,2.3-1.6,3.5-0.9
	c1.2,0.7,1.6,2.3,0.9,3.5l0,0L493.4,748.5C492.9,749.3,492.1,749.8,491.2,749.8z"/>
<path d="M505.5,751.4l-83.7,28.1l-94.2,94.9c-5.1,5.1-6.2,12.9-2.8,19.2c0.8,1.4,1.7,2.7,2.8,3.8l196.4-101.9L505.5,751.4z"/>
<path class="st0" d="M407.4,840.4c-0.4,0-0.8-0.1-1.2-0.3L381,826.5c-1.2-0.7-1.7-2.2-1-3.5c0.7-1.2,2.2-1.7,3.5-1l0,0l25.2,13.6
	c1.2,0.7,1.7,2.2,1,3.5C409.2,839.9,408.4,840.4,407.4,840.4L407.4,840.4z"/>
<path class="st1" d="M835.8,447.5H653.5V280.3c0-8.4,6.8-15.2,15.2-15.2h151.9c8.4,0,15.2,6.8,15.2,15.2c0,0,0,0,0,0L835.8,447.5z"
	/>
<path d="M488.2,167.2h-74c-11.7,0-21.2-9.5-21.2-21.2v-29.8c0-11.5,9.4-20.9,20.9-20.9h73.8c13.6,0,24.7,11,24.7,24.7c0,0,0,0,0,0
	v23C512.5,156.4,501.6,167.2,488.2,167.2C488.2,167.2,488.2,167.2,488.2,167.2z"/>
<path d="M406.9,869.4l114.5-53.3c2.6-1.2,5.7-0.1,6.9,2.5l5.6,12c1.2,2.6,0.1,5.7-2.5,6.9l-114.5,53.3c-2.6,1.2-5.7,0.1-6.9-2.5
	l-5.6-12C403.2,873.7,404.3,870.6,406.9,869.4z"/>
<path class="st0" d="M522.2,797.1L330.5,897.4c4.9,5,12.5,6.3,18.7,3.2l166.2-82.2c7.3-3.6,10.5-12.3,7.4-19.8L522.2,797.1z"/>
<path d="M342.1,904.8c-5,0-9.8-2-13.3-5.6l-2.4-2.5l197.2-103.2l1.7,4c3.6,8.8-0.1,18.8-8.6,23l-166.2,82.3
	C347.8,904.2,344.9,904.9,342.1,904.8z M335.2,897.9c4,2.3,8.8,2.5,13,0.4l166.2-82.2c5.7-2.8,8.5-9.3,6.6-15.4L335.2,897.9z"/>
<path class="st0" d="M422.4,823.1c-0.4,0-0.8-0.1-1.2-0.3L396,809.2c-1.2-0.7-1.7-2.2-1-3.5c0.7-1.2,2.2-1.7,3.5-1l0,0l25.2,13.6
	c1.2,0.7,1.7,2.2,1,3.5C424.2,822.6,423.3,823.1,422.4,823.1L422.4,823.1z"/>
<path class="st1" d="M487.7,767.1L437,784.3c-15.6,5.3-32.6-3.1-37.9-18.7c0,0,0,0,0,0L325.3,548c-10-29.6,5.8-61.8,35.5-71.9l0,0
	c29.6-10,61.8,5.8,71.9,35.5l73.7,217.6C511.7,744.9,503.4,761.8,487.7,767.1C487.7,767.1,487.7,767.1,487.7,767.1z"/>
<path class="st1" d="M653.1,447.6L420.6,573.6c-33.8,19.6-74.6,12.5-91.1-15.9l0,0c-16.5-28.4-2.4-67.3,31.4-86.9L591.7,337
	L653.1,447.6z"/>
<path d="M432.5,564.9c-1.4,0-2.5-1.2-2.5-2.6c0-0.9,0.5-1.8,1.3-2.2l21.9-11.7c1.2-0.7,2.8-0.4,3.5,0.8c0.7,1.2,0.4,2.8-0.8,3.5
	c-0.1,0.1-0.2,0.1-0.3,0.2l-21.9,11.7C433.3,564.8,432.9,564.9,432.5,564.9z"/>
<path d="M538.3,511.5c-1.4,0-2.5-1.2-2.5-2.6c0-0.9,0.5-1.8,1.3-2.2l56.7-30.3c1.2-0.7,2.8-0.3,3.5,0.9c0.7,1.2,0.3,2.8-0.9,3.5
	c-0.1,0-0.1,0.1-0.2,0.1l-56.7,30.3C539.1,511.4,538.7,511.5,538.3,511.5z"/>
<path class="st2" d="M707,943.3c-2.9,0-5.8-0.1-8.8-0.4c-33.2-3.3-62.3-24.9-82.2-60.9c-19.6-35.4-27.8-80.7-23.2-127.5
	c4.6-46.8,21.6-89.5,47.8-120.4c26.6-31.4,59.4-46.8,92.6-43.5c33.2,3.3,62.3,24.9,82.2,60.9c19.6,35.4,27.8,80.7,23.2,127.4l0,0
	c-4.6,46.8-21.6,89.5-47.8,120.4C766.6,927.9,737.1,943.3,707,943.3z M724.5,599.1c-59.8,0-114,67.9-122.8,156.3
	c-4.5,45,3.4,88.4,22.1,122.3C642.3,911,669,931,699.1,934c62.9,6.2,121.4-63.7,130.6-156c9.1-92.2-34.6-172.3-97.4-178.6
	C729.7,599.2,727.1,599.1,724.5,599.1z"/>
<ellipse cx="713" cy="762.1" rx="12.4" ry="14.9"/>
<path class="st2" d="M161.7,943.3c-2.9,0-5.8-0.1-8.8-0.4c-33.2-3.3-62.4-24.9-82.2-60.9c-19.6-35.4-27.8-80.7-23.2-127.5
	S69.1,665,95.3,634.1c26.6-31.4,59.5-46.8,92.6-43.5c33.1,3.3,62.3,24.9,82.2,60.9c19.6,35.4,27.8,80.7,23.2,127.4
	c-4.6,46.8-21.6,89.6-47.8,120.4C221.3,927.9,191.9,943.3,161.7,943.3z M179.2,599.1c-59.8,0-114,67.9-122.8,156.3
	c-4.5,45,3.4,88.4,22.1,122.3C97,911,123.7,931,153.9,934c2.6,0.3,5.2,0.4,7.8,0.4c59.8,0,114-67.9,122.8-156.3
	c9.1-92.2-34.6-172.3-97.4-178.6C184.4,599.2,181.8,599.1,179.2,599.1z"/>
<ellipse cx="167.8" cy="762.1" rx="12.4" ry="14.9"/>
<path d="M167.8,749.8c-0.2,0-0.4,0-0.5,0c-1.4-0.3-2.3-1.7-2-3c0,0,0,0,0,0l62-288.8c1.8-8.2,9-14,17.4-14h87.7
	c1.4,0,2.6,1.1,2.6,2.6c0,1.4-1.1,2.6-2.6,2.6h-87.7c-6,0-11.1,4.2-12.4,10l-62,288.8C170,748.9,169,749.8,167.8,749.8z"/>
<path d="M170,398.9c-6.5,0-12.1-4.5-13.6-10.8l-27.3-116.3c-1.7-7.6,3.1-15.1,10.6-16.8c1-0.2,2-0.3,3-0.3h147
	c6.4,0,12,4.3,13.6,10.6l28.1,111.5c1.9,7.5-2.7,15.1-10.3,17c-0.9,0.2-1.9,0.4-2.8,0.4l-147.8,4.8H170z M142.7,259.8
	c-4.9,0-8.9,4.1-8.9,9c0,0.6,0.1,1.3,0.2,1.9L161.3,387c1,4,4.5,6.8,8.7,6.9h0.3l147.8-4.8c4.9-0.2,8.8-4.4,8.6-9.3
	c0-0.6-0.1-1.2-0.2-1.8l-28.1-111.5c-1-3.9-4.5-6.7-8.6-6.7H142.7z"/>
<path d="M290.3,303.6h-48.7c-1.4,0-2.6-1.1-2.6-2.6s1.1-2.6,2.6-2.6h48.7c1.4,0,2.6,1.1,2.6,2.6S291.7,303.6,290.3,303.6z"/>
<path d="M293.9,324.9h-48.7c-1.4,0-2.6-1.1-2.6-2.6c0-1.4,1.1-2.6,2.6-2.6h48.7c1.4,0,2.6,1.1,2.6,2.6
	C296.4,323.8,295.3,324.9,293.9,324.9z"/>
<path d="M281.9,346.3H248c-1.4,0-2.6-1.1-2.6-2.6s1.1-2.6,2.6-2.6h33.8c1.4,0,2.6,1.1,2.6,2.6S283.3,346.3,281.9,346.3z"/>
<path class="st3" d="M227.7,353.1h-49.3c-2.4,0-4.6-1.7-5.2-4l-10.7-41.4c-0.7-2.9,1-5.8,3.9-6.6c0.4-0.1,0.9-0.2,1.3-0.2h49.3
	c2.4,0,4.6,1.7,5.2,4l10.7,41.4c0.7,2.9-1,5.8-3.8,6.6C228.6,353.1,228.1,353.1,227.7,353.1z"/>
<path d="M202.4,353.3c-1.2,0-2.3-0.9-2.6-2.1l-8.9-47.3c-0.2-1.4,0.7-2.7,2.1-2.9c1.3-0.2,2.6,0.7,2.9,2l8.9,47.3
	c0.3,1.4-0.6,2.7-2,3c0,0,0,0,0,0C202.7,353.3,202.5,353.3,202.4,353.3z"/>
<path d="M212.1,318.9c-1.2,0-2.3-0.4-3.2-1.2l-15.2-12.6c-1.1-0.8-1.4-2.4-0.6-3.6s2.4-1.4,3.6-0.6c0.1,0.1,0.2,0.1,0.2,0.2
	l15.2,12.6l5.3-12.9c0.6-1.3,2.1-1.8,3.4-1.3c1.2,0.6,1.8,1.9,1.3,3.2l-5.3,12.9c-0.6,1.5-1.9,2.6-3.5,3
	C213,318.8,212.6,318.9,212.1,318.9z"/>
<path d="M219.5,352.8c-1.2,0-2.2-0.9-2.5-2l-7-34c-0.3-1.4,0.6-2.7,2-3c1.4-0.3,2.7,0.6,3,2l6.9,34c0.3,1.4-0.6,2.7-2,3c0,0,0,0,0,0
	C219.8,352.8,219.6,352.8,219.5,352.8z"/>
<path class="st2" d="M717.3,413.6h203c9.1,0,16.6,7.4,16.6,16.6v146.1c0,9.1-7.4,16.6-16.6,16.6h-203c-9.1,0-16.6-7.4-16.6-16.6
	V430.1C700.7,421,708.1,413.6,717.3,413.6z"/>
<path d="M893.2,595.4L893.2,595.4c-1.4,0-2.6-1.1-2.6-2.6V497c0-1.4,1.1-2.6,2.6-2.6l0,0c1.4,0,2.6,1.1,2.6,2.6v95.8
	C895.7,594.2,894.6,595.4,893.2,595.4z"/>
<path class="st0" d="M724.1,431.5h34.4c3.8,0,7,3.1,7,7v19.1c0,3.8-3.1,7-7,7h-34.4c-3.8,0-7-3.1-7-7v-19.1
	C717.1,434.7,720.2,431.5,724.1,431.5z"/>
<path d="M760,485.3h-39c-1.4,0-2.6-1.1-2.6-2.6s1.1-2.6,2.6-2.6h39c1.4,0,2.6,1.1,2.6,2.6S761.5,485.3,760,485.3z"/>
<path d="M749.7,500.8h-28.7c-1.4,0-2.6-1.1-2.6-2.6c0-1.4,1.1-2.6,2.6-2.6h28.7c1.4,0,2.6,1.1,2.6,2.6
	C752.3,499.6,751.2,500.8,749.7,500.8z"/>
<path d="M893,499.6c-4.9,0-9.4-3-12.1-8.1L842.4,424c-0.7-1.2-0.3-2.8,0.9-3.5s2.8-0.3,3.5,0.9l38.5,67.6c1.9,3.5,4.7,5.6,7.8,5.4
	c3-0.1,6-2.3,7.8-6l28.4-66.5c0.6-1.3,2.1-1.9,3.3-1.3c1.3,0.6,1.9,2.1,1.3,3.3l0,0l-28.4,66.6c-2.6,5.6-7.2,8.9-12.3,9L893,499.6z"
	/>
<path d="M839.8,594.8L839.8,594.8c-1.4,0-2.6-1.1-2.6-2.6V441.3c-0.5-23.2,11.3-28.2,11.8-28.4c1.3-0.5,2.8,0.2,3.3,1.5
	c0.4,1.2-0.1,2.6-1.3,3.2c-0.4,0.2-9.1,4.3-8.7,23.6v151C842.3,593.6,841.2,594.8,839.8,594.8z"/>
<path d="M689.3,482.7H580.3c-6.3,0-11.4-5.2-11.4-11.5l0,0c0-5.6,4.1-10.4,9.6-11.3l108.9-17.5c6.3-1,12.1,3.3,13.1,9.6
	c0.1,0.6,0.1,1.1,0.1,1.7v17.5C700.7,477.6,695.6,482.7,689.3,482.7z"/>
<path class="st3" d="M759.5,316.6h137.9c10.1,0,18.2,8.2,18.2,18.2v60.5c0,10.1-8.2,18.2-18.2,18.2H759.5
	c-10.1,0-18.2-8.2-18.2-18.2v-60.5C741.3,324.8,749.4,316.6,759.5,316.6z"/>
<path d="M832.2,415.4c-1.4,0-2.6-1.1-2.6-2.6v-96.3c0-1.4,1.1-2.6,2.6-2.6s2.6,1.1,2.6,2.6v96.3
	C834.8,414.3,833.7,415.4,832.2,415.4z"/>
<path d="M892.5,375.3h-30.4l-32-52.9c-0.7-1.2-0.2-2.8,1-3.5c1.2-0.7,2.6-0.3,3.4,0.8l30.5,50.4h24.4l22.2-44.5
	c0.6-1.3,2.2-1.8,3.4-1.1c1.3,0.6,1.8,2.2,1.1,3.4L892.5,375.3z"/>
<path d="M834.2,415.4c-1.4,0-2.5-1.1-2.5-2.6c0-0.5,0.2-1.1,0.5-1.5l30.1-41.1h30.1l22.2,34.3c0.8,1.1,0.6,2.7-0.6,3.6
	c-1.1,0.8-2.7,0.6-3.6-0.6c-0.1-0.1-0.1-0.1-0.1-0.2l-20.6-32h-24.8l-28.5,39C835.8,415,835,415.4,834.2,415.4z"/>
<path class="st0" d="M605.9,70.9h54.9c7.9,0,14.3,6.4,14.3,14.3v49.7c0,7.9-6.4,14.3-14.3,14.3h-54.9c-7.9,0-14.3-6.4-14.3-14.3
	V85.2C591.6,77.3,598,70.9,605.9,70.9z"/>
<path d="M660.8,151.7h-54.9c-9.3,0-16.8-7.5-16.8-16.8c0,0,0,0,0,0V85.2c0-9.3,7.5-16.8,16.8-16.9c0,0,0,0,0,0h54.9
	c9.3,0,16.8,7.5,16.8,16.8v49.7C677.6,144.1,670.1,151.7,660.8,151.7C660.8,151.7,660.8,151.7,660.8,151.7z M605.9,73.5
	c-6.5,0-11.7,5.2-11.7,11.7v49.7c0,6.5,5.2,11.7,11.7,11.7h54.9c6.5,0,11.7-5.2,11.7-11.7V85.2c0-6.5-5.2-11.7-11.7-11.8
	c0,0,0,0,0,0L605.9,73.5z"/>
<path class="st4" d="M651.2,111.7L651.2,111.7c1.7-3.1,2.5-6.7,2.3-10.2c-0.6-11.2-10.1-19.8-21.3-19.3
	c-10.7,0.5-19.2,9.4-19.3,20.1c0,3.1,0.7,6.2,2.1,8.9l0,0c0.4,0.9,0.8,1.7,1.3,2.6c3.5,7.2,7.4,14.2,11.8,21
	c1.6,2.4,4.8,3.2,7.3,1.6c0.6-0.4,1.1-0.9,1.5-1.4c5-7.2,9.6-14.7,14-22.5c0.1-0.1,0.2-0.3,0.2-0.4l0.1-0.2
	C651.1,111.8,651.1,111.7,651.2,111.7z"/>
<circle class="st0" cx="633.2" cy="103.6" r="8.7"/>
<path class="st0" d="M395,110.7c0,0-14.3,7.4-7.4,40.6c0.8,4.1,0.4,8.3-1.3,12.1l-1.5,3.5c-0.8,1.8-0.1,3.9,1.6,4.9l4.6,2.7l5.3,21
	c0,0,4.1,22.9,29.5,13.5l16.3-5.6l25.4,12.6l38.7-41.9l-19.7-15.6c7.5-2.7,12.4-9.6,12.1-16.8c-0.3-8.6-7.8-13.3-8.2-13.5
	c-3.4-2-7.5-2.8-11.4-2.1c-7,1.3-12.8,7.3-14.6,15.2C464.3,141.4,423.2,165.3,395,110.7z"/>
<path d="M468,219.2l-26.1-13l-15.3,5.2c-8.8,3.3-16.4,3.2-22.3-0.2c-8.2-4.7-10.2-14-10.5-15.2l-5.1-19.9L385,174
	c-2.8-1.7-3.9-5.2-2.6-8.2l1.5-3.5c1.5-3.3,1.8-7,1.1-10.5c-7.2-34.8,8.1-43.1,8.7-43.5l2.3-1.2l1.2,2.3c9.3,17.9,20.8,29,34.5,32.9
	c10.2,2.8,21,1.8,30.5-2.8c2.5-8.4,8.8-14.6,16.4-16c4.5-0.7,9.2,0.1,13.2,2.5c0.4,0.2,9,5.5,9.4,15.5c0.1,7.2-3.7,13.9-9.9,17.5
	l18.6,14.8L468,219.2z M442.3,200.8l24.6,12.2l35.5-38.5l-21.2-16.8l4.4-1.5c6.4-2.3,10.7-8.2,10.5-14.3c-0.3-7.3-6.9-11.3-6.9-11.4
	c-2.9-1.7-6.3-2.3-9.6-1.8c-6,1.1-10.9,6.4-12.6,13.4l-0.3,1.1l-0.9,0.5c-10.9,5.7-23.5,7.1-35.4,3.8c-14.2-4.1-26.3-15.1-36-32.7
	c-1.4,1.6-2.6,3.4-3.4,5.4c-2.2,5.1-4.1,14.6-0.7,30.8c1,4.6,0.5,9.4-1.4,13.7l-1.6,3.4c-0.3,0.6,0,1.4,0.5,1.7l5.5,3.3l5.6,22.2
	c0,0.1,1.6,8.1,8.1,11.8c4.6,2.6,10.6,2.6,18-0.2L442.3,200.8z"/>
<path d="M480.6,151.2c-3.8,0-6.8-3-6.9-6.8c0-3.8,3-6.8,6.8-6.9c3.8,0,6.8,3,6.9,6.8c0,2.9-1.8,5.5-4.6,6.5
	C482.1,151.1,481.3,151.2,480.6,151.2z M480.6,142.7c-0.2,0-0.4,0-0.5,0.1c-0.9,0.3-1.3,1.3-1,2.1c0.3,0.9,1.3,1.3,2.1,1
	c0.9-0.3,1.3-1.3,1-2.1C481.9,143.1,481.3,142.7,480.6,142.7z"/>
<path d="M476.6,148.3c-1,0-2-0.6-2.4-1.6c-0.9-2.1-1.1-4.5-0.5-6.7c1.3-4.3,5.6-7.3,10.8-7.5c1.4,0,2.6,1.1,2.6,2.5
	c0,1.4-1.1,2.6-2.5,2.6c-2.9,0.1-5.4,1.7-6.1,3.8c-0.3,1.1-0.2,2.3,0.3,3.3c0.5,1.3-0.1,2.8-1.4,3.3c0,0,0,0,0,0
	C477.3,148.2,476.9,148.3,476.6,148.3z"/>
<circle cx="415.9" cy="154.3" r="3.6"/>
<path d="M409,189c-0.6,0-1.2,0-1.8-0.1c-1.4-0.2-2.4-1.6-2.1-3c0.2-1.4,1.6-2.4,3-2.1c0.3,0,7.1,0.9,12-6.6c0.8-1.2,2.3-1.5,3.5-0.8
	c1.2,0.8,1.5,2.3,0.8,3.5c0,0,0,0,0,0C419.2,188,412.3,189,409,189z"/>
<path class="st2" d="M431.5,69.8h38.8c23.3,0,42.2,18.9,42.2,42.2l0,0l0,0H389.3l0,0l0,0C389.3,88.7,408.2,69.8,431.5,69.8z"/>
<path d="M449.6,204.6c0,0,2.5-2.1,14.6-24.9l-2.5,31L449.6,204.6z"/>
<path class="st3" d="M463.6,112c3.7,14,4.5,28.6,2.2,42.9c-3.1,19-11.4,36.8-23.9,51.4l8.9,4.5c4.5-5.1,8.4-10.7,11.8-16.6
	c18.4-32.3,14.5-66.4,11.6-82.2L463.6,112z"/>
<path d="M462.3,221.5l45.4-48.2c4.5-5.1,10.2-9.1,16.6-11.6c13.7-5.2,28.3-1.8,49,8.1c16.3,7.8,31.8,17.2,46.3,28.1
	c29.2,21.8,52.3,51,65.5,85c9.9,25.6,15.9,57.6,7.8,92.4c-8.3,35.5-27.8,60-40.1,72.9l-87.7-44L462.3,221.5z"/>
<path class="st0" d="M605.2,355.1c-1.4,0-2.5-1.2-2.5-2.6c0-1.2,0.8-2.2,1.9-2.5l41.7-10.2c1.3-0.4,2.8,0.3,3.2,1.7
	s-0.3,2.8-1.7,3.2c-0.1,0-0.2,0.1-0.3,0.1L605.8,355C605.6,355,605.4,355.1,605.2,355.1z"/>
<path d="M599,325c-14.3-46.2-45.9-113.8-89.8-118.4c-6.7-0.7-27.5-2.8-42.6,10.2c-2.8,2.4-5.2,5.2-7.2,8.2
	c-13.3,19.6-6.6,44.1-4.8,50.5c1.3,4.6,2.9,9,5,13.2c9.4,18,18.9,36,28.3,54.1L396,374.4c-2.4,0.5-4.7,1.5-6.6,3l30.4,70
	c3.9-0.5,7.7-1.4,11.4-2.9l137.8-40.4c10.5-3.1,20.9-12.2,27-21C607.5,366.2,604.8,343.8,599,325z"/>
<path class="st0" d="M557.8,409.5c-1.4,0-2.6-1.1-2.6-2.5c0-1.1,0.7-2.1,1.7-2.4l10.8-3.8c25.1-8.8,39.3-35.4,32.6-61.1
	c-1.8-6.9-3.8-13.9-6.1-20.7c-5.5-16.2-12.4-31.8-20.7-46.7c-0.7-1.2-0.2-2.8,1-3.5c1.2-0.7,2.8-0.2,3.5,1l0,0
	c8.4,15.2,15.5,31.1,21.1,47.5c2.3,6.9,4.4,14,6.2,21c7.3,28.3-8.3,57.5-35.9,67.2l-10.8,3.8C558.3,409.4,558.1,409.4,557.8,409.5z"
	/>
<path d="M822.2,291H669.9c-1.4,0-2.6-1.1-2.6-2.6s1.1-2.6,2.6-2.6h152.4c1.4,0,2.6,1.1,2.6,2.6S823.6,291,822.2,291z"/>
<path d="M733.9,267.6c-1.4,0-2.6-1.1-2.6-2.6v-47.9c0-1.4,1.1-2.6,2.6-2.6c1.4,0,2.6,1.1,2.6,2.6v47.9
	C736.4,266.5,735.3,267.6,733.9,267.6z"/>
<path class="st0" d="M385.4,392.2l-43.7,16.6c-1.9,0.7-3.9,1.4-5.9,2c-4.3,1.4-15.5,7.1-16.4,29.8c0,0-1.3,26.2,15.4,25.4
	c0,0,9.6,16.3,21,9.8c0,0,16.3,9.1,20-8.3c4-3.5,8.1-7.2,12.2-11c6.5-6.1,12.7-12.1,18.5-18.1L385.4,392.2z"/>
<path d="M364.9,480.7c-3.1-0.1-6.1-0.8-8.9-2.1c-9.6,4.4-18.4-4-22.5-10.1c-3.6-0.1-7.1-1.6-9.6-4.1c-7.7-7.7-7-23.3-7-23.9
	c1-24,13-30.4,18.1-32.1c2.1-0.7,3.9-1.3,5.8-2l45.9-17.5l23,50l-1.3,1.3c-6,6.2-12.3,12.3-18.6,18.2c-3.8,3.6-7.7,7.1-11.6,10.5
	c-1.3,5.4-3.9,8.9-7.8,10.7C368.7,480.4,366.8,480.8,364.9,480.7z M355.9,472.9l1.3,0.7c0.1,0,6.5,3.5,11.2,1.4
	c2.6-1.1,4.2-3.8,5.1-8l0.2-0.8l0.6-0.6c4.1-3.6,8.1-7.2,12.1-11c5.8-5.4,11.6-11.1,17.2-16.7l-19.5-42.4l-41.5,15.8
	c-2,0.7-3.8,1.4-6,2.1c-4.1,1.3-13.8,6.6-14.6,27.5c0,0.2-0.6,14,5.5,20.1c1.9,1.9,4.6,2.9,7.3,2.6l1.5-0.1l0.8,1.3
	c1.6,2.5,3.5,4.8,5.8,6.7c4.2,3.5,8.1,4.2,11.8,2.1L355.9,472.9z"/>
<path d="M334.9,468.6c-1,0-1.9-0.6-2.3-1.6c-0.3-0.6-6.4-15.4-1.3-28.7c0.5-1.3,2-2,3.3-1.5c1.3,0.5,2,2,1.5,3.3l0,0
	c-4.4,11.4,1.2,24.8,1.3,24.9c0.5,1.3-0.1,2.8-1.4,3.3C335.6,468.5,335.3,468.6,334.9,468.6z"/>
<path d="M357.5,478c-0.4,0-0.9-0.1-1.3-0.3c-7.9-4.5-12.5-12.6-13.2-23.3c-0.3-4.9,0.1-9.8,1.3-14.5c0.2-1.4,1.6-2.3,3-2.1
	c1.4,0.2,2.3,1.6,2.1,3c0,0.1-0.1,0.3-0.1,0.4c0,0.2-5.9,23.1,9.6,32c1.2,0.7,1.6,2.3,0.9,3.5C359.3,477.4,358.5,477.9,357.5,478
	L357.5,478z"/>
<path d="M375.9,470.1c-0.2,0-0.4,0-0.6-0.1c-16-3.7-16.2-23.3-14.1-33.1c0.3-1.4,1.7-2.2,3.1-1.9c1.3,0.3,2.2,1.6,1.9,3
	c0,0.2-4.8,23.6,10.2,27.1c1.4,0.3,2.2,1.7,1.9,3.1C378.1,469.3,377.1,470.1,375.9,470.1L375.9,470.1z"/>
<path d="M508.6,105.4H392.8c-1.4,0-2.6-1.1-2.6-2.6c0-1.4,1.1-2.6,2.6-2.6h115.9c1.4,0,2.6,1.1,2.6,2.6
	C511.2,104.2,510.1,105.4,508.6,105.4z"/>
<path class="st5" d="M800.8,235.8h66.9c7.2,0,13.1,5.9,13.1,13.1v54.6c0,7.2-5.9,13.1-13.1,13.1h-66.9c-7.2,0-13.1-5.9-13.1-13.1
	v-54.6C787.7,241.7,793.6,235.8,800.8,235.8z"/>
<path class="st4" d="M878.4,267.6H790c-1.4,0-2.6-1.1-2.6-2.6s1.1-2.6,2.6-2.6h88.3c1.4,0,2.6,1.1,2.6,2.6S879.8,267.6,878.4,267.6z
	"/>
<path class="st4" d="M834.2,319.2c-1.4,0-2.6-1.1-2.6-2.6v-80.8c0-1.4,1.1-2.6,2.6-2.6s2.6,1.1,2.6,2.6v80.8
	C836.8,318,835.7,319.2,834.2,319.2z"/>
<path class="st4" d="M831.6,242.9l0.1-4.2c1-32.7,11.4-43.4,20-46.6l0,0c3.9-1.5,8.3-1.2,12,0.8c3.5,1.9,6.1,5.2,7,9.1
	c4.6,19.7-33.7,38.3-35.3,39.1L831.6,242.9z M853.5,196.9c-6.8,2.6-14.9,11.2-16.5,37.6c11.5-6.3,31.4-19.8,28.7-31.4
	c-0.6-2.5-2.2-4.6-4.5-5.7C858.9,196.1,856,195.9,853.5,196.9z"/>
<path class="st4" d="M835.5,242.9l-3.8-1.8c-1.6-0.8-39.9-19.4-35.3-39.1c0.9-3.9,3.5-7.2,7-9.1c3.7-2,8.1-2.3,12-0.8l0,0
	c8.6,3.2,19,13.9,20,46.6L835.5,242.9z M810.3,196.3c-1.6,0-3.1,0.4-4.5,1.1c-2.3,1.2-3.9,3.3-4.5,5.7
	c-2.7,11.6,17.2,25.1,28.8,31.4c-1.6-26.5-9.7-35.1-16.5-37.6C812.5,196.5,811.4,196.3,810.3,196.3z"/>
<path class="st2" d="M384.4,401.2l15.8,35.2c0,0,3.3,12.5,19.5,10.9l-30.4-70C384.9,380.6,380.5,387.4,384.4,401.2z"/>
<path class="st0" d="M487.2,343.5c-1.4,0-2.5-1.1-2.5-2.6c0-1.1,0.7-2.1,1.8-2.4l33.2-10.9c1.3-0.4,2.8,0.3,3.2,1.6
	s-0.3,2.8-1.6,3.2l0,0l-33.2,10.9C487.8,343.4,487.5,343.5,487.2,343.5z"/>
<path d="M709.9,589h215.4c5.1,0,9.2,4.1,9.2,9.2l0,0c0,5.1-4.1,9.2-9.2,9.2H709.9c-5.1,0-9.2-4.1-9.2-9.2l0,0
	C700.7,593.1,704.8,589,709.9,589z"/>
<path class="st0" d="M218.7,110.6h78.8c11.4,0,20.7,9.3,20.7,20.7l0,0c0,11.4-9.3,20.7-20.7,20.7h-78.8c-11.4,0-20.7-9.3-20.7-20.7
	l0,0C198,119.8,207.3,110.6,218.7,110.6z"/>
<path d="M297.5,154.5h-78.8c-12.8-0.3-23-11-22.7-23.8c0.3-12.4,10.3-22.4,22.7-22.7h78.8c12.8,0.3,23,11,22.7,23.8
	C319.9,144.2,309.9,154.2,297.5,154.5L297.5,154.5z M218.7,113.1c-10,0.3-17.9,8.6-17.7,18.6c0.3,9.6,8,17.4,17.7,17.7h78.8
	c10-0.3,17.9-8.6,17.7-18.6c-0.3-9.6-8-17.4-17.7-17.7H218.7z"/>
<circle class="st2" cx="225.3" cy="131.3" r="6.7"/>
<circle class="st2" cx="258.1" cy="131.3" r="6.7"/>
<circle class="st2" cx="290.8" cy="131.3" r="6.7"/>
</svg>
