<?xml version="1.0" encoding="utf-8"?>
<!-- Generator: Adobe Illustrator 27.0.0, SVG Export Plug-In . SVG Version: 6.00 Build 0)  -->
<svg version="1.1" id="layer" xmlns="http://www.w3.org/2000/svg" xmlns:xlink="http://www.w3.org/1999/xlink" x="0px" y="0px"
	 viewBox="0 0 1000 1000" style="enable-background:new 0 0 1000 1000;" xml:space="preserve">
<style type="text/css">
	.st0{fill:#FFF0DC;}
	.st1{fill:#4B0062;}
	.st2{fill:#F48001;}
	.st3{fill:#A26BB4;}
	.st4{fill:#F44B1B;}
</style>
<path class="st0" d="M770.8,365.2c-54.1,0.6-97.5,44.9-96.9,99c0.2,16.7,4.6,33.1,12.9,47.6c26.1,45.7,84.3,61.6,130.1,35.5
	c0.4-0.3,0.9-0.5,1.3-0.8c22.2-13.1,38.4-34.4,44.9-59.4c13.8-51.9-16.8-105.2-68.1-118.8C787.1,366.2,779,365.1,770.8,365.2
	L770.8,365.2z"/>
<polygon class="st0" points="205.6,685.7 297.8,749.1 343,734.1 245.9,671.5 "/>
<path class="st1" d="M297.6,750.6l-94.9-65.3l43.3-15.2l100,64.5L297.6,750.6z M208.5,686l89.5,61.6l42-13.9L245.8,673L208.5,686z"
	/>
<path class="st0" d="M724.6,885.8L614.2,622.7L532,673.5l96.3,195.4l0,0c-15.2,11.1-21,31-14,48.5l0.5,1.3L724.6,885.8z"/>
<path class="st1" d="M614,920.3l-1-2.4c-7-17.6-1.5-37.8,13.6-49.4l-96.4-195.4l84.6-52.4l111.6,265.9L614,920.3z M533.7,674
	L630,869.4l-0.9,0.7c-14.7,10.7-20.3,30-13.6,46.9v0.2L722.9,885L613.6,624.7L533.7,674z"/>
<path class="st0" d="M194.2,693.1h277.2l-13.2-95.9l-246,5.3v-0.2c-11-20.9-36.7-29.1-57.8-18.5l0,0L194.2,693.1z"/>
<path class="st1" d="M472.8,694.4H193.2l-40.8-111.2l1.1-0.5c21.5-10.7,47.7-2.6,59.3,18.5l246.4-5.3L472.8,694.4z M195.1,691.8
	h274.6l-12.9-93.3l-245.7,5.3l-0.4-0.7c-10.6-19.8-34.8-27.9-55.1-18.5L195.1,691.8z"/>
<polygon class="st0" points="67.7,438.8 63.6,364.1 391.8,366.4 395.9,441.1 "/>
<path class="st1" d="M397.3,442.4l-330.8-2.3l-4.3-77.3l330.8,2.3L397.3,442.4z M69,437.5l325.5,2.3l-4-72l-325.5-2.3L69,437.5z"/>
<polygon class="st0" points="643.8,693.1 430.9,693.1 322.9,366 506.4,366 514.9,386.1 529.1,420.1 "/>
<path class="st1" d="M645.7,694.4H430.1L321,364.7h186.2l23.1,54.9L645.7,694.4z M431.9,691.8h209.9L505.5,367.3H324.7L431.9,691.8z
	"/>
<rect x="455.2" y="392.3" transform="matrix(0.9868 -0.1621 0.1621 0.9868 -57.3924 83.956)" class="st1" width="61" height="2.6"/>
<path class="st0" d="M529.1,420l-14.4,233.1l-2.5,40l-1.3,20.6h-61.1c-7.1,0-12.9-5.8-12.9-12.9c0-0.3,0-0.5,0-0.8l0.4-6.9l2.5-40
	l16.5-267"/>
<path class="st1" d="M512.2,715h-62.3c-7.8,0-14.2-6.4-14.2-14.2c0-0.3,0-0.6,0-0.9l19.4-313.9l2.6,0.2l-19.4,313.9
	c-0.4,6.4,4.5,11.9,10.8,12.3c0.2,0,0.5,0,0.7,0h59.8l18-292.4l2.6,0.2L512.2,715z"/>
<path class="st2" d="M514.7,653.2l-2.5,40l-1.3,20.6h-61.1c-7.1,0-12.9-5.8-12.9-12.9c0-0.3,0-0.5,0-0.8l0.4-6.9l2.5-40L514.7,653.2
	z"/>
<path class="st1" d="M512.2,715h-62.3c-7.8,0-14.2-6.4-14.2-14.2c0-0.3,0-0.6,0-0.9l3-48.1h77.4L512.2,715z M441.2,654.5l-2.8,45.6
	c-0.4,6.4,4.5,11.9,10.8,12.3c0.2,0,0.5,0,0.7,0h59.8l3.6-57.9H441.2z"/>
<polygon class="st0" points="952.1,738.8 932.4,756.5 943.6,780.5 829.4,752 858.7,673 960.7,697.1 940.9,714.8 "/>
<path class="st1" d="M946,782.4L827.7,753l30.1-81.6l105.6,25l-21,18.7l11.2,24l-19.8,17.6L946,782.4z M831.2,751.1l110.1,27.4
	l-10.6-22.4l19.8-17.6l-11.2-24l18.6-16.6l-98.4-23.3L831.2,751.1z"/>
<polygon class="st0" points="634.3,405.9 531.3,292.6 510.7,339 576.4,417.6 "/>
<path class="st1" d="M575.9,419.1l-66.6-79.9l21.8-49l105.8,116.6L575.9,419.1z M512.3,338.7l64.6,77.4l54.9-11.1l-100-110.1
	L512.3,338.7z"/>
<circle class="st0" cx="396.6" cy="275.3" r="142.6"/>
<path class="st1" d="M396.6,419.2c-79.5,0-143.9-64.4-143.9-143.9s64.4-143.9,143.9-143.9c79.5,0,143.9,64.4,143.9,143.9l0,0
	C540.5,354.8,476.1,419.1,396.6,419.2z M396.6,134.1c-78,0-141.3,63.3-141.3,141.3s63.3,141.3,141.3,141.3
	c78,0,141.3-63.3,141.3-141.3l0,0c0-78-63.3-141.3-141.3-141.4V134.1z"/>
<polygon class="st2" points="349.7,301.3 322.9,268 327.3,244.4 408.8,225.5 444,291.3 "/>
<path class="st1" d="M349.1,302.7l-27.7-34.3l4.7-25.1l83.3-19.3l36.6,68.4L349.1,302.7z M324.3,267.7l26,32.2l91.6-9.7L408.1,227
	l-79.7,18.5L324.3,267.7z"/>
<polygon class="st1" points="491,381.8 407.6,226.1 409.9,224.9 493.3,380.6 "/>
<path class="st3" d="M342.6,240.8c-7.9,28.8-36.1,34.5-36.1,34.5l5.1-27.3L342.6,240.8z"/>
<path class="st1" d="M304.8,277l5.6-30.1l34-7.9l-0.6,2.1c-7.9,29.2-37,35.4-37.1,35.4L304.8,277z M312.7,249.1l-4.5,24.4
	c6.2-1.8,25.6-9.3,32.6-30.9L312.7,249.1z"/>
<path class="st3" d="M418.6,236.7c7.2,3.6,15,5.8,23,6.5c-14.9,14.9-43,7.1-66.3-10l60.4-13.9l19.5,9.9
	C441.1,241.1,418.6,236.7,418.6,236.7z"/>
<path class="st1" d="M420.8,252.4c-14.8,0-32.1-7.6-46.3-18.1l-2.3-1.7l63.6-14.7l21.7,11l-1.5,1.3c-8.9,7.6-21.1,8.8-29,8.6
	c4.8,1.5,9.8,2.6,14.8,3.1l2.8,0.2l-2,2C436.7,249.8,428.8,252.7,420.8,252.4z M378.4,233.9c20.1,14,45.4,21.9,60.1,10.3
	c-7.2-0.9-14.1-3.1-20.6-6.4l-7.1-4l7.9,1.6c0.2,0,20.4,3.8,33.8-6l-17.2-8.8L378.4,233.9z"/>
<path class="st1" d="M376,340.6L376,340.6c0,0.4,0,0.9,0,1.3c-1,6.9-6.9,12-13.9,11.9c-3.5,0-6.8-1.2-9.5-3.5
	c-0.6-0.5-1.2-1-1.8-1.6c-5.6-4.6-13.7-4.6-19.3,0c-0.6,0.5-1.2,1.1-1.7,1.8c-2.6,2.3-5.9,3.5-9.3,3.5c-7.5,0.2-13.7-5.7-14-13.2
	l0,0c0-0.5,0-1,0-1.5c0.2-2.5,0.9-5,2.1-7.2c2.6-4.8,6.6-8.8,11.5-11.4c3.9-2.2,8.2-3.7,12.6-4.4c2.8-0.5,5.7-0.8,8.5-0.8
	c2.4,0,4.8,0.2,7.1,0.5c3.6,0.5,7.2,1.5,10.6,3c4.9,2,9.3,5.3,12.6,9.4c2.5,3.1,4,6.9,4.4,10.8C375.9,339.8,376,340.2,376,340.6z"/>
<path class="st1" d="M362,355.3c-3.8,0-7.5-1.4-10.3-3.9c-0.7-0.6-1.3-1.2-1.8-1.9c-5.1-4.1-12.4-4-17.4,0.2c-0.6,0.5-1.1,1-1.5,1.6
	c-2.9,2.6-6.7,4-10.6,4c-8.2,0.2-15.1-6.3-15.3-14.6c0-0.6,0-1.1,0-1.7c0.2-2.7,1-5.3,2.2-7.7c2.7-5.1,6.9-9.2,12-11.9
	c4.1-2.2,8.5-3.8,13.1-4.6c5.3-1,10.7-1,16-0.2c3.8,0.5,7.5,1.6,11,3.1c5.2,2.1,9.7,5.5,13.2,9.8c2.6,3.3,4.2,7.3,4.6,11.5
	c0,0.5,0,1,0,1.6l0,0c0,0.5,0,1.1,0,1.6C376.2,349.7,369.7,355.4,362,355.3z M341.3,343.9c3.9,0,7.6,1.3,10.6,3.8
	c0.5,0.6,1,1.2,1.6,1.7c2.4,2.1,5.4,3.2,8.6,3.2c6.3,0.1,11.8-4.5,12.6-10.7c0-0.4,0-0.8,0-1.2l0,0c0-0.4,0-0.9,0-1.3
	c-0.4-3.7-1.8-7.2-4.1-10.2c-3.2-4-7.4-7-12.1-9c-3.3-1.4-6.8-2.4-10.3-2.9c-5-0.7-10.2-0.7-15.2,0.2c-4.3,0.8-8.4,2.2-12.3,4.3
	c-4.6,2.4-8.4,6.2-11,10.8c-1.1,2.1-1.7,4.4-1.9,6.7c0,0.4,0,0.9,0,1.3c0.2,6.8,5.9,12.2,12.7,12.1c3.1,0,6.2-1.1,8.5-3.1
	c0.5-0.7,1.1-1.3,1.8-1.8C333.8,345.4,337.5,344,341.3,343.9L341.3,343.9z"/>
<rect x="698" y="360.4" transform="matrix(9.063258e-02 -0.9959 0.9959 9.063258e-02 294.5251 1049.4601)" class="st1" width="47.8" height="6"/>
<path class="st1" d="M275.4,159.1l-1.9-1.8c3.2-3.3,6.5-6.5,10-9.6l1.7,2C281.8,152.7,278.5,155.8,275.4,159.1z"/>
<path class="st1" d="M234.7,231l-2.6-0.7c6.2-23,17.2-44.3,32.3-62.8l2.1,1.7C251.6,187.4,240.8,208.4,234.7,231z"/>
<rect x="251.2" y="229.3" transform="matrix(0.974 -0.2265 0.2265 0.974 -42.2005 93.4856)" class="st1" width="270.2" height="2.6"/>
<rect x="262.3" y="198.6" transform="matrix(0.9833 -0.1819 0.1819 0.9833 -29.9888 72.9447)" class="st1" width="240.8" height="2.6"/>
<rect x="363.7" y="120.2" transform="matrix(0.2659 -0.964 0.964 0.2659 96.5504 482.354)" class="st1" width="2.6" height="115.2"/>
<rect x="314" y="163.8" transform="matrix(0.206 -0.9785 0.9785 0.206 55.7398 466.499)" class="st1" width="2.6" height="70.2"/>
<rect x="327.4" y="149.5" transform="matrix(0.9103 -0.4141 0.4141 0.9103 -29.2525 166.7371)" class="st1" width="85.2" height="2.6"/>
<rect x="367.5" y="162.6" transform="matrix(0.9499 -0.3127 0.3127 0.9499 -30.4001 138.33)" class="st1" width="97.2" height="2.6"/>
<rect x="503.7" y="200.5" transform="matrix(0.815 -0.5794 0.5794 0.815 -54.692 339.9177)" class="st1" width="2.6" height="110.3"/>
<rect x="488.7" y="206.6" transform="matrix(0.8951 -0.4459 0.4459 0.8951 -72.8161 247.7061)" class="st1" width="2.6" height="144.1"/>
<rect x="258" y="299.8" transform="matrix(0.9944 -0.1056 0.1056 0.9944 -29.823 38.7662)" class="st1" width="186.6" height="2.6"/>
<rect x="278" y="337.6" transform="matrix(0.9803 -0.1973 0.1973 0.9803 -59.6001 79.6348)" class="st1" width="183.7" height="2.6"/>
<path class="st1" d="M353.8,411.9l-1-0.9l-1.3,0.3c-0.2-0.8-0.2-0.8,40.5-43.7l40.2-42.4l1.9,1.8C433.3,327.9,355,410.5,353.8,411.9
	z"/>
<rect x="383.8" y="373.7" transform="matrix(0.5744 -0.8186 0.8186 0.5744 -121.4429 516.482)" class="st1" width="104.3" height="2.6"/>
<rect x="444.7" y="377.9" transform="matrix(0.3478 -0.9376 0.9376 0.3478 -49.1161 687.7551)" class="st1" width="50.1" height="2.6"/>
<rect x="305.7" y="374.8" transform="matrix(0.9753 -0.2209 0.2209 0.9753 -74.3987 86.8281)" class="st1" width="90.7" height="2.6"/>
<rect x="487.7" y="229" transform="matrix(0.5408 -0.8412 0.8412 0.5408 40.6879 535.0708)" class="st1" width="45.3" height="2.6"/>
<rect x="495.7" y="243.1" transform="matrix(0.26 -0.9656 0.9656 0.26 149.8318 684.2851)" class="st1" width="51.2" height="2.6"/>
<rect x="503.9" y="261.9" transform="matrix(5.477590e-02 -0.9985 0.9985 5.477590e-02 240.0372 780.0963)" class="st1" width="56.2" height="2.6"/>
<polygon class="st1" points="255.2,290.6 254.1,288.3 308.1,262 309.3,264.4 "/>
<polygon class="st1" points="307.8,306.6 278.8,278.2 280.7,276.3 309.6,304.7 "/>
<path class="st0" d="M421.6,269.5c-3.7,15.4-19.3,24.9-34.7,21.1c-15.4-3.7-24.9-19.3-21.1-34.7c1-4.1,2.9-8,5.6-11.3l7.9,3.9
	l24.4,12.1L421.6,269.5z"/>
<path class="st1" d="M393.7,292.8c-16.6,0-30-13.5-30-30.1c0-6.8,2.4-13.5,6.6-18.8l0.7-0.8l52.1,25.8l-0.3,1
	C419.6,283.4,407.5,292.8,393.7,292.8z M371.7,246.4c-9,12.1-6.5,29.3,5.6,38.4c4.7,3.5,10.4,5.4,16.3,5.4
	c12.3,0.1,23.1-8.1,26.4-19.9L371.7,246.4z"/>
<path class="st4" d="M403.7,260.8c-0.7,8.1-7.8,14-15.8,13.4s-14-7.8-13.4-15.8c0.3-3.7,2-7.1,4.8-9.6L403.7,260.8z"/>
<path class="st1" d="M389.2,275.4c-8.8,0-15.9-7.1-16-15.8c0-4.5,1.9-8.8,5.3-11.8l0.7-0.6l26,12.9v0.9
	C404.3,269.2,397.4,275.4,389.2,275.4z M379.5,250.2c-2.4,2.5-3.8,5.8-3.7,9.2c0.3,7.4,6.5,13.1,13.9,12.8
	c6.2-0.2,11.4-4.7,12.6-10.7L379.5,250.2z"/>
<rect x="395.4" y="216.6" transform="matrix(0.444 -0.896 0.896 0.444 -9.9791 498.4699)" class="st1" width="2.6" height="81.3"/>
<rect x="478.3" y="84.6" transform="matrix(0.4393 -0.8983 0.8983 0.4393 198.1931 489.2882)" class="st1" width="25.5" height="2.6"/>
<rect x="505.2" y="98.8" transform="matrix(0.7533 -0.6576 0.6576 0.7533 62.5142 366.9753)" class="st1" width="30.6" height="2.6"/>
<rect x="531.3" y="121.8" transform="matrix(0.9531 -0.3027 0.3027 0.9531 -11.6613 171.0315)" class="st1" width="29.3" height="2.6"/>
<path class="st0" d="M348.4,315.9v11.7h-15.6v-11.5c2.8-0.5,5.7-0.8,8.5-0.8C343.6,315.4,346,315.6,348.4,315.9z"/>
<path class="st1" d="M349.7,328.9h-18.2V315l1.1-0.2c5.3-1,10.7-1,16.1-0.2l1.1,0.2L349.7,328.9z M334.1,326.3h13V317
	c-4.3-0.5-8.7-0.5-13,0.2V326.3z"/>
<path class="st0" d="M325.5,330l-13.5,7.9l-3.4-5.9c2.6-4.8,6.6-8.8,11.5-11.4L325.5,330z"/>
<path class="st1" d="M311.5,339.6l-4.4-7.6l0.3-0.6c2.7-5.1,6.9-9.2,12-11.9l1.1-0.6l6.7,11.6L311.5,339.6z M310.1,331.9l2.3,4.1
	l11.2-6.5l-4.1-7.2C315.7,324.6,312.4,327.9,310.1,331.9L310.1,331.9z"/>
<path class="st0" d="M371.6,328.3l-5.1,8.9l-13.5-7.9l6-10.6C363.9,320.8,368.3,324.1,371.6,328.3z"/>
<path class="st1" d="M366.9,339l-15.8-9.1l7.3-12.6l1.1,0.5c5.2,2.1,9.7,5.5,13.2,9.8l0.5,0.7L366.9,339z M354.7,328.9l11.2,6.5
	l4-6.9c-2.9-3.4-6.5-6.1-10.6-7.9L354.7,328.9z"/>
<rect x="581.7" y="479.9" transform="matrix(0.922 -0.3872 0.3872 0.922 -144.6736 264.0314)" class="st1" width="2.6" height="22.5"/>
<rect x="336.8" y="466.8" transform="matrix(0.9495 -0.3137 0.3137 0.9495 -138.7521 131.1222)" class="st1" width="2.6" height="59.9"/>
<rect x="353.9" y="538.4" transform="matrix(0.9495 -0.3138 0.3138 0.9495 -154.1628 139.1856)" class="st1" width="2.6" height="20.1"/>
<rect x="615.7" y="517.1" transform="matrix(0.922 -0.3872 0.3872 0.922 -173.3521 283.527)" class="st1" width="2.6" height="109.9"/>
<rect x="616.5" y="677.2" transform="matrix(0.4555 -0.8902 0.8902 0.4555 -292.3611 934.5455)" class="st1" width="2.6" height="58.1"/>
<rect x="569.7" y="739.7" transform="matrix(0.8047 -0.5937 0.5937 0.8047 -319.7168 510.1508)" class="st1" width="91.7" height="2.6"/>
<rect x="577.8" y="690.3" transform="matrix(0.529 -0.8486 0.8486 0.529 -343.559 833.5009)" class="st1" width="2.6" height="71.9"/>
<rect x="576.9" y="759.9" transform="matrix(0.6659 -0.7461 0.7461 0.6659 -359.0645 720.7608)" class="st1" width="96.5" height="2.6"/>
<rect x="597.2" y="802.9" transform="matrix(0.6345 -0.773 0.773 0.6345 -385.9827 792.3537)" class="st1" width="95.2" height="2.6"/>
<rect x="626.7" y="855.9" transform="matrix(0.9602 -0.2792 0.2792 0.9602 -212.7351 220.5876)" class="st1" width="82.8" height="2.6"/>
<rect x="626.2" y="815.4" transform="matrix(0.9672 -0.2541 0.2541 0.9672 -185.8794 194.4486)" class="st1" width="67" height="2.6"/>
<rect x="673.1" y="849.7" transform="matrix(0.5585 -0.8295 0.8295 0.5585 -430.5361 947.0626)" class="st1" width="2.6" height="56.5"/>
<rect x="672.1" y="868.2" transform="matrix(0.9285 -0.3714 0.3714 0.9285 -273.2672 319.9199)" class="st1" width="43.8" height="2.6"/>
<rect x="635.1" y="871" transform="matrix(0.4983 -0.867 0.867 0.4983 -456.1709 1000.4264)" class="st1" width="2.6" height="46.7"/>
<rect x="387.8" y="670.1" transform="matrix(0.2755 -0.9613 0.9613 0.2755 -348.156 880.9716)" class="st1" width="45" height="2.6"/>
<rect x="376.3" y="599" transform="matrix(0.9997 -2.530457e-02 2.530457e-02 0.9997 -16.2277 9.7628)" class="st1" width="2.6" height="94.2"/>
<rect x="305.1" y="644.8" transform="matrix(0.2558 -0.9667 0.9667 0.2558 -361.342 822.7746)" class="st1" width="97.2" height="2.6"/>
<rect x="264.3" y="645.3" transform="matrix(0.3186 -0.9479 0.9479 0.3186 -399.346 737.6988)" class="st1" width="98.3" height="2.6"/>
<rect x="270" y="597" transform="matrix(0.9091 -0.4166 0.4166 0.9091 -245.0104 171.8795)" class="st1" width="2.6" height="100.6"/>
<rect x="237.7" y="601.2" transform="matrix(0.9798 -0.2001 0.2001 0.9798 -124.7291 60.9092)" class="st1" width="2.6" height="92.9"/>
<rect x="217" y="602" transform="matrix(0.9905 -0.1378 0.1378 0.9905 -87.1747 36.2634)" class="st1" width="2.6" height="91.5"/>
<rect x="170.9" y="649.4" transform="matrix(0.4196 -0.9077 0.9077 0.4196 -473.486 560.8677)" class="st1" width="61.8" height="2.6"/>
<rect x="157.5" y="618.9" transform="matrix(0.3558 -0.9346 0.9346 0.3558 -457.0522 577.3114)" class="st1" width="65.3" height="2.6"/>
<rect x="156.5" y="593.8" transform="matrix(0.618 -0.7862 0.7862 0.618 -401.1802 364.5299)" class="st1" width="36" height="2.6"/>
<rect x="262.9" y="621.4" transform="matrix(0.9525 -0.3045 0.3045 0.9525 -175.6415 119.2741)" class="st1" width="63.2" height="2.6"/>
<rect x="277.9" y="656.4" transform="matrix(0.9187 -0.3949 0.3949 0.9187 -235.7223 170.217)" class="st1" width="35.6" height="2.6"/>
<rect x="447.5" y="698.3" transform="matrix(7.811116e-02 -0.9969 0.9969 7.811116e-02 -271.9926 1105.0714)" class="st1" width="28.1" height="2.6"/>
<rect x="472.8" y="698.3" transform="matrix(7.811116e-02 -0.9969 0.9969 7.811116e-02 -248.5699 1130.3451)" class="st1" width="28.1" height="2.6"/>
<rect x="441.9" y="618.9" class="st1" width="74.8" height="2.6"/>
<path class="st1" d="M516.6,606.4c-69.9-84.3-69.9-84.5-69.9-85.1l2.6,0.2h-1.3l1.1-0.7c1.2,1.8,46,55.8,69.5,84.1L516.6,606.4z"/>
<rect x="485" y="455" transform="matrix(0.7479 -0.6638 0.6638 0.7479 -214.421 450.7936)" class="st1" width="2.6" height="105.3"/>
<rect x="487.5" y="425.5" transform="matrix(0.4961 -0.8683 0.8683 0.4961 -159.2557 659.8173)" class="st1" width="2.6" height="83.2"/>
<rect x="470.5" y="453.6" transform="matrix(0.9982 -6.052591e-02 6.052591e-02 0.9982 -26.6229 31.0233)" class="st1" width="56.6" height="2.6"/>
<rect x="452.8" y="429.4" transform="matrix(0.9871 -0.1602 0.1602 0.9871 -62.6742 84.2383)" class="st1" width="76.5" height="2.6"/>
<rect x="445.2" y="559.5" transform="matrix(0.9865 -0.164 0.164 0.9865 -85.7315 83.3376)" class="st1" width="33.2" height="2.6"/>
<rect x="442" y="591.6" transform="matrix(0.9618 -0.2736 0.2736 0.9618 -144.2489 151.6937)" class="st1" width="59.5" height="2.6"/>
<rect x="171" y="347" transform="matrix(0.6806 -0.7327 0.7327 0.6806 -239.6918 254.7031)" class="st1" width="2.6" height="110.5"/>
<rect x="244.1" y="341" transform="matrix(0.6108 -0.7918 0.7918 0.6108 -223.31 351.0162)" class="st1" width="2.6" height="123.3"/>
<rect x="279.3" y="412.7" transform="matrix(0.1132 -0.9936 0.9936 0.1132 -140.1729 670.9841)" class="st1" width="53" height="2.6"/>
<rect x="241.8" y="390" transform="matrix(0.1406 -0.9901 0.9901 0.1406 -157.2148 601.6267)" class="st1" width="52.2" height="2.6"/>
<rect x="222.7" y="376" transform="matrix(0.6659 -0.7461 0.7461 0.6659 -201.7278 304.1613)" class="st1" width="32" height="2.6"/>
<rect x="183.1" y="409.8" transform="matrix(0.9731 -0.2306 0.2306 0.9731 -92.9907 53.9584)" class="st1" width="2.6" height="30.2"/>
<rect x="150.2" y="377.6" transform="matrix(0.9863 -0.1647 0.1647 0.9863 -65.2483 30.5332)" class="st1" width="2.6" height="62.2"/>
<rect x="180.9" y="347.4" class="st1" width="31.9" height="2.6"/>
<rect x="142.7" y="347.4" class="st1" width="20.5" height="2.6"/>
<rect x="404.2" y="917.3" class="st1" width="332.4" height="2.6"/>
<rect x="341.1" y="446" transform="matrix(0.4141 -0.9103 0.9103 0.4141 -188.1836 602.3613)" class="st1" width="65.4" height="2.6"/>
<rect x="380.7" y="442.9" transform="matrix(0.4117 -0.9113 0.9113 0.4117 -161.8037 637.7051)" class="st1" width="64.6" height="2.6"/>
<rect x="358.3" y="467.1" transform="matrix(0.8693 -0.4942 0.4942 0.8693 -178.09 263.314)" class="st1" width="101.2" height="2.6"/>
<rect x="409" y="509.4" transform="matrix(0.5827 -0.8127 0.8127 0.5827 -277.0707 563.703)" class="st1" width="2.6" height="84.5"/>
<rect x="379.8" y="512.4" transform="matrix(0.8459 -0.5333 0.5333 0.8459 -209.5869 301.9261)" class="st1" width="75.8" height="2.6"/>
<rect x="406.1" y="541.9" transform="matrix(0.9585 -0.285 0.285 0.9585 -137.1161 144.2434)" class="st1" width="41.8" height="2.6"/>
<rect x="416.4" y="564.6" transform="matrix(0.5427 -0.8399 0.8399 0.5427 -308.0501 622.5818)" class="st1" width="2.6" height="59.1"/>
<rect x="413.1" y="637.9" class="st1" width="27.7" height="2.6"/>
<rect x="479" y="624.2" transform="matrix(0.4377 -0.8991 0.8991 0.4377 -250.848 849.8721)" class="st1" width="150.3" height="2.6"/>
<rect x="557" y="622.8" transform="matrix(0.3378 -0.9412 0.9412 0.3378 -196.5166 968.9963)" class="st1" width="66.6" height="2.6"/>
<rect x="583.7" y="611.6" transform="matrix(6.296472e-02 -0.998 0.998 6.296472e-02 -106.4852 1198.5721)" class="st1" width="2.6" height="88.8"/>
<rect x="497.4" y="547.1" transform="matrix(0.5287 -0.8488 0.8488 0.5287 -209.6619 719.1404)" class="st1" width="90.8" height="2.6"/>
<rect x="524.2" y="458.2" transform="matrix(0.7988 -0.6015 0.6015 0.7988 -168.8855 414.0498)" class="st1" width="20.9" height="2.6"/>
<rect x="525.3" y="479" transform="matrix(0.9994 -3.507392e-02 3.507392e-02 0.9994 -16.513 19.2248)" class="st1" width="28.8" height="2.6"/>
<rect x="520.8" y="506.6" transform="matrix(0.8964 -0.4432 0.4432 0.8964 -168.9409 293.0573)" class="st1" width="43.3" height="2.6"/>
<path class="st0" d="M898.6,729.2l-54.4-59l-59.7,55.2c-4.4,5.1,3.6,21.7,18.3,37.6c14.7,15.9,30.6,25.3,36,21.3L898.6,729.2z"/>
<path class="st1" d="M835.6,786.4c-8.5,0-22.7-10.6-33.7-22.6c-13.2-14.2-24-32.8-18.5-39.4l60.7-56.2l56.2,61l-60.7,55.9
	C838.4,786,837,786.4,835.6,786.4z M844,672.1l-58.7,54.2c-3.3,3.9,3.2,19.2,18.5,35.7c15.3,16.5,30,24.2,34.3,21.1l58.7-54
	L844,672.1z"/>
<path class="st0" d="M140.5,404.2L140.5,404.2l-28.7-78.8l-86.1,31.3L54.2,435l0,0l0.2,0.4l0,0c3.2,6.2,24,4.5,47.3-4
	C124.9,422.9,142,410.9,140.5,404.2z"/>
<path class="st1" d="M65.7,440.5c-5.6,0-9.9-1-11.9-3.4h-0.3l-0.7-1.6l-29-79.6l88.7-32.3l29.8,81.3h-0.4c0,8.6-20,20.5-39.7,27.7
	C89.5,437.3,75.7,440.5,65.7,440.5z M55.3,434.6l0.2,0.3c2.6,4.9,21.5,4.1,45.7-4.6s39.2-20.5,37.9-25.8v-0.6l-28-76.9l-83.7,30.5
	L55.3,434.6z"/>
<rect x="913" y="467.9" class="st1" width="40.7" height="2.6"/>
<polygon class="st3" points="839,331.9 845.9,330.9 850,336.5 866.4,311.9 838,320.1 842.1,325.7 "/>
<path class="st1" d="M850,338.8l-4.7-6.5l-8.5,1.3l3.8-7.7l-4.7-6.5l33.7-9.6L850,338.8z M846.5,329.5l3.5,4.8l13.4-20l-23.2,6.6
	l3.5,4.8l-2.3,4.6L846.5,329.5z"/>
<polygon class="st3" points="900.7,291 903.8,284.8 897,285.8 892.9,280.2 876.4,304.7 904.8,296.6 "/>
<path class="st1" d="M873.3,307l19.6-29l4.7,6.5l8.6-1.3l-3.9,7.7l4.7,6.5L873.3,307z M892.9,282.5l-13.4,20l23.2-6.5l-3.5-4.8
	l2.3-4.6l-5.1,0.8L892.9,282.5z"/>
<ellipse transform="matrix(0.8088 -0.5881 0.5881 0.8088 -14.7643 571.4449)" class="st3" cx="871.5" cy="308.4" rx="13.8" ry="13.8"/>
<path class="st1" d="M871.4,323.4c-8.3,0-15.1-6.7-15.1-15.1c0-8.3,6.7-15.1,15.1-15.1c4.8,0,9.4,2.3,12.2,6.2l0,0
	c4.9,6.7,3.4,16.2-3.3,21.1C877.7,322.4,874.6,323.4,871.4,323.4z M871.4,295.9c-6.9,0-12.4,5.6-12.4,12.5c0,6.9,5.6,12.4,12.5,12.4
	c6.9,0,12.4-5.6,12.4-12.5c0-2.6-0.8-5.2-2.4-7.3C879.2,297.8,875.4,295.9,871.4,295.9L871.4,295.9z"/>
<rect x="922.2" y="491.1" transform="matrix(0.4145 -0.91 0.91 0.4145 78.5325 1137.7659)" class="st1" width="2.6" height="33.4"/>
<path class="st1" d="M769.7,562.6c-35.2,0-67.8-18.9-85.2-49.5c-13.2-23-16.7-50.2-9.9-75.8c14.1-53.4,68.5-85.4,121.2-71.4
	c52.7,13.9,84.1,68.6,69.9,122c-6.7,25.6-23.3,47.6-46.1,61C804.5,557.8,787.3,562.6,769.7,562.6z M770.8,365.2
	c-54.1,0.6-97.5,44.9-96.9,99c0.2,16.7,4.6,33.1,12.9,47.6c26.1,45.7,84.3,61.6,130.1,35.5c0.4-0.3,0.9-0.5,1.3-0.8
	c22.2-13.1,38.4-34.4,44.9-59.4c13.8-51.9-16.8-105.2-68.1-118.8C787.1,366.2,779,365.1,770.8,365.2L770.8,365.2z"/>
<path class="st2" d="M864.4,487.4c-12.9,52.3-65.7,84.3-118,71.4c-52.3-12.9-84.3-65.7-71.4-118c0.3-1.1,0.6-2.2,0.9-3.3
	c1.8-6.7,4.2-13.1,7.3-19.3L867.7,467C867.3,473.9,866.2,480.8,864.4,487.4z"/>
<path class="st1" d="M769.5,562.6c-8.4,0-16.8-1.1-25-3.2c-52.8-13.9-84.1-68.6-70-122c1.8-6.8,4.3-13.3,7.4-19.6l0.5-1l1,0.3
	L869,466.1v1.1c-0.4,7-1.5,13.9-3.2,20.6l0,0C854.3,531.7,814.8,562.3,769.5,562.6z M683.9,419.9c-2.8,5.8-5.1,11.9-6.7,18.1
	c-13.8,51.9,16.8,105.2,68.1,118.8c51.3,13.6,104.2-17.6,117.9-69.6l0,0c1.7-6.2,2.7-12.6,3.1-19L683.9,419.9z"/>
<path class="st2" d="M836,479.9c-14,52.8-54.7,87.7-91.1,78c-36.4-9.6-54.5-60.2-40.6-112.9c1.7-6.6,4-13.1,6.7-19.5l128.8,34
	C839.1,466.5,837.8,473.2,836,479.9z"/>
<path class="st1" d="M757.1,560.8c-4.2,0-8.5-0.5-12.6-1.6c-37-9.8-55.6-61.2-41.5-114.5c1.8-6.7,4-13.3,6.7-19.6l0.4-1.1l131,34.7
	v1.1c-0.8,6.9-2.1,13.7-3.9,20.4l0,0C824.8,527.6,790.5,560.8,757.1,560.8z M711.8,427.1c-2.5,5.9-4.5,12-6.2,18.2
	c-13.8,51.9,4,101.9,39.6,111.3c35.6,9.4,75.7-25.2,89.5-77.1l0,0c1.7-6.2,2.9-12.5,3.7-18.9L711.8,427.1z"/>
<rect x="700.4" y="498.9" transform="matrix(0.2558 -0.9667 0.9667 0.2558 82.0868 1107.0792)" class="st1" width="119.3" height="2.6"/>
<polygon class="st1" points="734.9,458.8 710.2,475.3 748.1,485.3 "/>
<path class="st1" d="M750.6,487.3l-43.5-11.5l28.3-18.8L750.6,487.3z M713.4,474.7l32.2,8.5l-11.3-22.5L713.4,474.7z"/>
<polygon class="st1" points="802.7,476.8 778,493.2 815.9,503.2 "/>
<path class="st1" d="M818.4,505.3l-43.5-11.5l28.3-18.9L818.4,505.3z M781.2,492.7l32.2,8.5l-11.3-22.5L781.2,492.7z"/>
<path class="st1" d="M802.3,545.4c-10-11.1-26.8-20.9-47.1-26.2s-39.8-5.3-53.9-0.5c5.5-10.3,16.8-17.3,30.5-19.8
	c5.2-0.9,10.6-1.1,15.8-0.7c8.4,0.7,16.6,2.8,24.3,6.4c4.9,2.2,9.4,5.1,13.5,8.5C796.3,522,802.6,533.7,802.3,545.4z"/>
<path class="st2" d="M746.9,508.7l-15.8-1.1l0.6-8.8c5.2-0.9,10.6-1.1,15.8-0.7L746.9,508.7z"/>
<path class="st2" d="M785.5,513.1l-3.8,7.9l-14.3-6.9l4.6-9.5C776.9,506.9,781.4,509.7,785.5,513.1z"/>
<circle class="st4" cx="725.6" cy="321.2" r="24.6"/>
<path class="st1" d="M725.8,347.2c-0.8,0-1.6,0-2.4,0c-14.3-1.3-24.8-13.9-23.5-28.2c1.3-14.3,13.9-24.8,28.2-23.5
	c14.3,1.3,24.8,13.9,23.5,28.2l0,0C750.3,337,739.1,347.2,725.8,347.2z M725.8,298c-12.9,0-23.3,10.4-23.3,23.3
	c0,12.9,10.4,23.3,23.3,23.3c12,0,22.1-9.2,23.2-21.2l0,0c1.2-12.8-8.3-24.1-21.1-25.3c0,0,0,0-0.1,0C727.1,298,726.4,298,725.8,298
	L725.8,298z"/>
<path class="st1" d="M729.7,346.6c-10.1-5.1-17.4-14.3-17.7-22.5c-0.1-5.6,3-10.7,7.9-13.2c4.6-3.3,11-2.2,14.3,2.4
	c3.9,4.7,5.3,12.8,1,17.1c-1.8,2.2-4.6,3.2-7.4,2.6c-2.5-0.6-4.4-2.5-5.1-5c-0.7-2.7,0.1-5.7,2.2-7.6l1.9,1.8c-1.4,1.3-2,3.2-1.5,5
	c0.5,1.4,1.7,2.5,3.2,2.9c1.8,0.3,3.7-0.4,4.9-1.9c3.1-3.3,1.9-9.8-1.2-13.7c-2.5-3.4-7.3-4.2-10.9-1.8c-4.1,2.1-6.7,6.3-6.6,11
	c0.3,7.1,7.2,15.7,16.3,20.3L729.7,346.6z"/>
<path class="st0" d="M890.5,402c0.1,0.6,0.1,1.3,0,1.9c-0.2,5.3-2.1,10.3-5.4,14.4c-0.4,0.5-0.8,1-1.2,1.4l-1.6,1.7l-7.4,7.9
	l-0.6,0.6l-0.8-0.7l-9.2-8.6l4-4.3l2.3-2.4l3.3-3.5c1.1-1.2,1.9-2.6,2.4-4.1c0-0.1,0-0.3,0-0.4c0.3-1.1,0.5-2.3,0.4-3.5
	c-0.1-2.9-1.3-5.7-3.5-7.7l-0.2-0.2c-0.5-0.5-1.1-0.9-1.7-1.3c-2.5-1.5-5.5-1.9-8.3-1.2c-1.3,0.3-2.5,0.8-3.6,1.6
	c-0.7,0.4-1.3,1-1.8,1.6l-7.4,7.9l-2.5,2.6l-5.3,5.7l-7.3,7.7l-3.1,3.2l-9.3,9.8l-0.2-0.2l-9.3-9.6l6.3-6.7l7.4-7.9l2.1-2.2l10.3-11
	l1.2-1.3l7-7.5c1.2-1.2,2.5-2.4,3.9-3.4c1.5-1.1,3.1-2,4.8-2.6c2.4-1,5-1.6,7.7-1.8c5.5-0.4,10.9,1.1,15.5,4.1
	c0.2,0,0.5,0.3,0.7,0.5c0.9,0.6,1.7,1.3,2.5,2c2.2,2.1,4,4.7,5.3,7.4l0,0C889.6,395.1,890.4,398.5,890.5,402z"/>
<path class="st1" d="M822.9,434.1l-1.2-1.2l-10.2-10.6l35.3-37.5c1.2-1.3,2.6-2.5,4-3.5c1.6-1.1,3.3-2,5.1-2.6
	c8-3.3,17.2-2.4,24.4,2.5l0.5,0.3l0.2,0.2c0.9,0.7,1.8,1.4,2.6,2.1c2.2,2.1,3.9,4.5,5.3,7.1l0,0l0.4,0.7c1.5,3.2,2.4,6.8,2.5,10.4
	c0.1,0.7,0.1,1.4,0,2.1c-0.2,5.5-2.2,10.8-5.7,15.1c-0.4,0.5-0.8,1-1.3,1.5l-10.6,11.1l-1.7-1.6l-10.1-9.5l10.6-11.1
	c1-1,1.7-2.3,2.1-3.6v-0.4c0.3-1,0.4-2,0.4-3c0-2.6-1.2-5.1-3.1-6.8l-0.3-0.2c-0.4-0.4-0.9-0.7-1.4-1c-2.2-1.3-4.8-1.7-7.3-1.1
	c-1.1,0.3-2.2,0.7-3.2,1.4c-0.6,0.4-1.1,0.8-1.6,1.4L822.9,434.1z M815.2,422.3l7.6,7.9l33.9-36c0.6-0.7,1.3-1.3,2.1-1.8
	c1.2-0.8,2.6-1.4,4-1.8c3.1-0.8,6.5-0.3,9.2,1.3c0.7,0.4,1.4,0.9,2,1.5l0.3,0.2c2.4,2.2,3.8,5.3,3.9,8.6c0.1,1.3-0.1,2.6-0.5,3.9
	c0,0.2-0.1,0.3-0.1,0.5c-0.5,1.7-1.4,3.2-2.6,4.5l-8.6,9.2l7.9,7.6l8.6-9.2c0.4-0.4,0.8-0.9,1.2-1.3c3.2-3.8,5-8.6,5.1-13.6
	c0-0.6,0-1.2,0-1.8l0,0c-0.1-3-0.7-5.9-1.9-8.7l-0.3-0.7c-1.2-2.6-3-5-5.1-7c-0.7-0.7-1.5-1.3-2.3-1.9l-0.2-0.2l-0.3-0.2
	c-6.5-4.4-14.8-5.3-22-2.3c-1.6,0.6-3.1,1.5-4.5,2.5c-1.3,0.9-2.5,2-3.6,3.2L815.2,422.3z"/>
<path class="st4" d="M890.5,403.9c-0.2,5.3-2.1,10.3-5.4,14.4c-0.4,0.5-0.8,1-1.2,1.4l-1.6,1.7l-11.6-7.6l3.3-3.5
	c1.1-1.2,1.9-2.6,2.4-4.1c0-0.1,0-0.3,0-0.4L890.5,403.9z"/>
<path class="st1" d="M882.4,423.1l-13.9-9.1l4.4-4.6c1-1,1.7-2.3,2.1-3.6l0.2-0.9l1-0.4l15.6-2.2v1.6c-0.2,5.6-2.2,10.9-5.7,15.2
	c-0.4,0.5-0.8,1-1.3,1.5L882.4,423.1z M872.6,413.5l9.4,6.1l0.8-0.9c0.4-0.4,0.8-0.9,1.2-1.3c2.8-3.4,4.6-7.6,5-12l-11.6,1.6
	c-0.6,1.6-1.5,3-2.6,4.2L872.6,413.5z"/>
<path class="st4" d="M879.6,382.2l-6.4,12.3c-0.5-0.5-1.1-0.9-1.7-1.3c-2.5-1.5-5.5-1.9-8.3-1.2c-1.3,0.3-2.5,0.8-3.6,1.6l-3.1-13.7
	c2.4-1,5-1.6,7.7-1.8C869.6,377.6,875,379.1,879.6,382.2z"/>
<path class="st1" d="M873.6,396.6l-1.3-1.2c-0.4-0.4-0.9-0.8-1.4-1.1c-2.2-1.3-4.8-1.7-7.3-1.1c-1.1,0.3-2.2,0.7-3.2,1.4l-1.6,1.1
	l-3.8-16.7l1-0.4c8-3.3,17.2-2.4,24.4,2.5l1,0.7L873.6,396.6z M865.7,390.3c2.2,0,4.4,0.6,6.3,1.7l0.6,0.4l5.1-9.8
	c-6-3.6-13.3-4.3-19.9-2l2.5,10.9c0.8-0.4,1.6-0.7,2.4-0.8C863.7,390.4,864.7,390.3,865.7,390.3z"/>
<polygon class="st4" points="847.8,405.7 842.4,411.3 835.2,419.1 827,407.8 829.1,405.6 839.4,394.6 840.7,393.3 "/>
<path class="st1" d="M835,421.1l-9.7-13.4l15.6-16.6l8.5,14.8L835,421.1z M828.7,407.9l6.5,9.1l10.9-11.5l-5.8-10l0,0L828.7,407.9z"
	/>
<ellipse transform="matrix(0.735 -0.678 0.678 0.735 -243.6001 776.2061)" class="st0" cx="871.3" cy="699.8" rx="12.5" ry="40.6"/>
<path class="st1" d="M895.3,732c-4.2-0.4-8.2-1.8-11.6-4.1c-8.3-5.2-15.9-11.5-22.4-18.9c-13.8-14.9-24.8-34.1-18.2-40.1
	c6.6-6.1,24.8,6.5,38.5,21.4c6.8,7.1,12.5,15.1,17,23.8c3.8,7.9,4.2,13.5,1.3,16.3C898.5,731.5,896.9,732.1,895.3,732z M847.4,670
	c-1-0.1-1.9,0.2-2.6,0.8c-3.9,3.6,2.6,19.4,18.5,36.4c6.4,7.2,13.7,13.4,21.8,18.5c6.2,3.6,11.1,4.7,13,2.9l0,0
	c1.9-1.8,1.2-6.7-1.9-13.2c-4.4-8.5-9.9-16.3-16.5-23.2C866.3,677.8,853.5,670,847.4,670L847.4,670z"/>
<ellipse transform="matrix(0.735 -0.678 0.678 0.735 -243.6001 776.2061)" class="st1" cx="871.3" cy="699.8" rx="5.1" ry="16.5"/>
<ellipse transform="matrix(0.9396 -0.3423 0.3423 0.9396 -112.6134 44.1317)" class="st0" cx="68.7" cy="341.1" rx="46.2" ry="12.9"/>
<path class="st1" d="M36.9,362.3c-7.2,0-11.6-1.7-12.8-5c-1.4-3.9,2.1-9,10.1-14.7c9.2-6.3,19.2-11.3,29.7-15
	c21.7-7.9,46.3-11.6,49.5-2.9l0,0c3.2,8.7-18.1,21.7-39.8,29.6c-10.4,4-21.3,6.6-32.3,7.7C39.7,362.2,38.3,362.3,36.9,362.3z
	 M100.6,322.3c-12.3,0.7-24.4,3.3-35.9,7.9c-10.3,3.6-20,8.5-29,14.5c-6.6,4.8-10,9.1-9.1,11.7s6.3,3.7,14.5,3.1
	c10.8-1.1,21.5-3.7,31.7-7.6c24.8-9.1,40.1-21.1,38.2-26.2C110.1,323.6,106.4,322.3,100.6,322.3z"/>
<ellipse transform="matrix(0.9396 -0.3423 0.3423 0.9396 -112.6134 44.1316)" class="st1" cx="68.7" cy="341.1" rx="18.9" ry="5.3"/>
<path class="st0" d="M85.6,506.5L87,487l-17.3,3.2l1.6-22.2l-17.3,3.2l1.6-22.2l-11.8,3.8c10.6-16.8,51.8-78.1,68.9-125.2l27.7,76
	C140.4,403.7,143.7,417.5,85.6,506.5z"/>
<path class="st1" d="M83.9,511.4l1.6-22.8l-17.2,3.2l1.6-22.2l-17.3,3.1l1.6-22l-13.4,4.3l1.9-3c1.4-2.2,3.4-5.3,5.8-9
	c15.7-24.4,48.2-75.3,63-115.9l1.2-3.4l29,79.4c0.2,0.7,2.9,15.6-54.9,104L83.9,511.4z M88.4,485.4l-1.2,16.1
	c53.4-82.3,51.9-97.3,51.9-97.5l-26.4-72.5c-15.4,40.3-46.7,89.2-62,113.1l-3.8,5.9l10.2-3.3l-1.6,22.4l17.3-3.2l-1.6,22.2
	L88.4,485.4z"/>
<rect x="666.7" y="169.1" class="st1" width="2.6" height="48"/>
<rect x="644.1" y="191.7" class="st1" width="48" height="2.6"/>
<rect x="666.7" y="175.6" transform="matrix(0.7071 -0.7071 0.7071 0.7071 59.1408 528.942)" class="st1" width="2.6" height="35"/>
<rect x="650.5" y="191.7" transform="matrix(0.7071 -0.7071 0.7071 0.7071 59.154 528.9365)" class="st1" width="35" height="2.6"/>
<ellipse class="st1" cx="700.1" cy="193.1" rx="3.9" ry="2.8"/>
<ellipse class="st1" cx="636.1" cy="193.1" rx="3.9" ry="2.8"/>
<circle class="st3" cx="697.3" cy="603.6" r="13.1"/>
<circle class="st3" cx="736.9" cy="653.1" r="7.6"/>
<circle class="st3" cx="166.8" cy="251.1" r="10.3"/>
<circle class="st3" cx="416.4" cy="756.6" r="7.5"/>
</svg>
