<?xml version="1.0" encoding="utf-8"?>
<!-- Generator: Adobe Illustrator 27.0.0, SVG Export Plug-In . SVG Version: 6.00 Build 0)  -->
<svg version="1.1" id="Layer_1" xmlns="http://www.w3.org/2000/svg" xmlns:xlink="http://www.w3.org/1999/xlink" x="0px" y="0px"
	 viewBox="0 0 1500 1500" style="enable-background:new 0 0 1500 1500;" xml:space="preserve">
<style type="text/css">
	.st0{fill:#FFFFFF;}
	.st1{fill:#FFEA27;}
	.st2{fill:#3964FF;}
</style>
<path class="st0" d="M715.8,1285.5c3.4-12,7.9-25,13.1-38.8l16.6,40.5h68.1L779.6,1125c47.3-113.4,93.8-245.9,52.9-355.7
	c-13.9-54.2-21.1-97.6-23.8-131.8c1,1,1.8,1.7,2.4,1.6c3.7-1,8.5-0.9,5.3-11.7c-1.3-4.4-5.2-10.7-5.2-11.3
	c0.2-2.1,10.4,18.8,10.9,19.3c9.7,8.1,12.4,2.4,10.9-5.9c1.6,3.7,3.2,7,5.2,9c6.2,6,11.3-1.2,8-11.9c-8.4-26.9-24.2-33.1-38.5-33.8
	c1.4-30.3,7.6-48.6,14.8-57.7c6-7.7,34.3-38.6,41-47.1c0,0-7.5-9.2-17-20.6c18.7-32.7,36.5-66.8,39.7-73.6c5.2-11,20.4-36.7,33.8-59
	c18.1-30.3,31-59,48.3-89c10.8-18.7,11.2-55.3,5.9-77.7c-8.4-35.7-19.6-32.1-20.7-34.5v-0.1c-4.1-15.4-8.1-30.3-9-33.9
	C939.2,78,929.9,77.3,920,79.1c-8.4,1.5-15,3-22.9,3.8c-11.7,1.1-18.1,4-13.8,20.8c3.7,14.4,14,52.2,18.7,67.2c2.1,6.8,2.7,7.3,3,10
	c1.4,4.8,3.7,8.2,6.8,10.5c2.8,4.2,8.2,10.5,18.9,21.1c6.8,6.7,9.7,18.5-9.5,47.1c-23.4,34.8-57,83.8-63.3,97.2
	c-4.3,9.1-31.2,47.5-47.7,69.4c-0.2-0.2-0.4-0.3-0.6-0.5c-2.7-2-21.5,36-48.8,37.5c-2.7,0.2-5.5,0.5-8.2,1l-0.1-0.5l-0.2-0.6
	l-0.5-1.7c-0.1-0.2-0.1-0.4-0.2-0.6l-0.3-1.1l-0.2-0.7l-0.3-1.1c-0.1-0.2-0.1-0.5-0.2-0.7s-0.2-0.7-0.3-1.1l-0.2-0.8
	c-0.1-0.4-0.2-0.7-0.3-1.1s-0.1-0.5-0.2-0.7c-0.1-0.4-0.2-0.8-0.3-1.2c0-0.2-0.1-0.4-0.1-0.6c-0.1-0.5-0.2-0.9-0.3-1.4l-0.1-0.4
	l-0.4-1.8c0-0.1,0-0.2-0.1-0.4c-0.1-0.5-0.2-0.9-0.3-1.4c0-0.2-0.1-0.4-0.1-0.6c-0.1-0.4-0.1-0.8-0.2-1.1c0-0.2-0.1-0.4-0.1-0.6
	s-0.1-0.7-0.2-1s-0.1-0.4-0.1-0.6s-0.1-0.7-0.1-1s-0.1-0.4-0.1-0.6s-0.1-0.7-0.1-1l-0.1-0.5c0-0.4,0-0.7-0.1-1v-0.4
	c0-0.5-0.1-0.9-0.1-1.4c0,0,0-0.1,0-0.1c0-0.4,0-0.8,0-1.1c0-0.1,0-0.3,0-0.4s0-0.5,0-0.8s0-0.3,0-0.4l0.1-0.6l0.1-0.4
	c0-0.2,0.1-0.4,0.1-0.5s0-0.2,0.1-0.3s0.1-0.3,0.2-0.5c0-0.1,0.1-0.2,0.1-0.3c0.1-0.1,0.1-0.3,0.2-0.4c0-0.1,0.1-0.1,0.1-0.2
	c0.1-0.2,0.2-0.3,0.4-0.5c13.8-13.5,15.3-38.2,9.6-61.1c17.6-3.9,12.6-41.5,12.6-41.5l-19.5,8.2c-7.5-64.6-74.9-63.4-96.2-18.4
	c-15,31.8-31.5,100.8-108.5,159.6c-3.3,2.5,31.9,22.7,69.8,43.2c-15,23.9-23.1,56.5-32.8,97.8l3.6-0.4c-1.2,3.6-2.5,7.9-3.7,12.5
	c-23.1,46.8-58.4,141.9-71.2,185.2c-25.4,27.5-72.1,194.5-74,211.5c-0.8,6.6,59.5,23,65.5,25.7c25.8,12,102.5,31,129.9,40.5
	c1.3,0.4,6.6-14.8,13.4-36.1c2.7,5,5.2,9.7,7.6,14.1l0.6,1.1c4.8,8.8,8.9,16.5,12.1,22.6l0.2,0.3c1.3,2.5,2.4,4.7,3.4,6.6
	c0.2,0.4,0.4,0.8,0.5,1.1s0.5,1,0.7,1.4l0.3,0.8c0.4,0.9,0.8,1.7,1,2.4l0,0l-32.2,178.2L715.8,1285.5L715.8,1285.5z M542.9,815.3
	l40.7-118.3c10.8,11.4,42.6-6,52.9-15c-4.4,25.2-11.2,49.9-20.3,73.8l0,0l-0.6,1.5v0.1c-0.2,0.5-0.3,0.9-0.5,1.4l0,0.1
	c-0.2,0.4-0.3,0.8-0.5,1.2l-0.1,0.2l-0.4,1.1l-0.1,0.2c-0.1,0.3-0.3,0.7-0.4,1l-0.1,0.2l-0.4,0.9l-0.1,0.2l-0.3,0.8l-0.1,0.2
	l-0.3,0.6c-12,19.3-20.5,40.7-25.1,63C570.8,823.3,555.3,818.5,542.9,815.3z"/>
<path class="st0" d="M863.9,1404.9l-6.1-0.1C858.1,1409.7,861.4,1406.3,863.9,1404.9z"/>
<path class="st0" d="M874.9,1405l-8.6-0.1c0.1,0.1,0.1,0.2,0.2,0.4C868.1,1411,871.9,1407.2,874.9,1405z"/>
<path class="st0" d="M874.9,1405h3.8C878.1,1403.1,876.7,1403.8,874.9,1405z"/>
<path class="st0" d="M887.8,1407.8c0.9-0.8,1.8-1.7,2.6-2.7l-11.7-0.1c0,0.1,0.1,0.3,0.1,0.4
	C879.2,1406.8,885.8,1409.8,887.8,1407.8z"/>
<path class="st0" d="M857.7,1404.8c-0.1-1.8-1.4-1.2-3.1,0H857.7z"/>
<path class="st0" d="M863.9,1404.9h2.5C865.8,1404,864.9,1404.3,863.9,1404.9z"/>
<path class="st1" d="M631.3,1407.8c5.3-2.7,0.2,5.9,12.6-0.4c5.2-2.6,0.8,9.1,15.9-0.3c4-2.5,4.2,7.9,17.9-1.9
	c3.4-2.5-0.5,6.6,13.6,0.6c7.7-3.2,0.4,7.9,16.2-0.3c9.6-5,0.2,9.6,17.8,0.6c7.1-3.6,0.5,7.4,13.6,0.6c4.8-2.5,3.3,7.9,12.7,0.9
	c3-2.2,0.4,7.2,10.4-2c3.5-3.3,4.4,0.9,12.3,0.5c0.8,0,1.6,0.1,2.3,0.3c5.5,9.6,8.3-2,12.3,2.8c3.4,4.2,8.4-3.7,10.5-1
	c3.6,4.7,6.1-4.3,9.8-0.7c5.5,5.2,9.5-5.9,12.1-0.7c3.3,6.6,7.5-6.1,11.8,0.9c4.7,7.6,10.1-8.1,13.8,0c1.2,2.7,5-0.8,7.7-2.8
	l-127-1.1l41.8-0.5c3.1,0,6.2,0,9.1-0.1l111.6-1.4c-2.1-9.9-5.5-28.7-15.9-28.7H872c11.9-7.5-17.1-35.3-28.2-41.4
	c-27-14.8-22.4-37.5-51.7-10.4c-15.8,14.6-24.9-28-43.2-15.7c-9.9,6.7-13.7,14.2-15.3,21c-1.1-0.9-2.3-1.9-3.5-3
	c-31.5-27.2-23.4-7-33.7,0.4l6.6-38.3c-1.1,4.1-5.8,29.7-6.8,38.5c-2.2,1.5-4.8,2.2-7.5,2.3c-34.5,1.6-28.6-18.9-38.7-23.9
	c2.4-8.1,4.8-16.2,4.9-16.8l-5,16.8c-1.7-0.8-3.5-1.1-5.3-1.1c-7.8,0-15.1,12.5-20.1,26.1l-2.8,0.2c0.7,0.6,1.4,1.2,2.1,1.7
	c-3.7,10.7-6,21.9-6,28.1c0,3.8-1.6,7.1-1.6,13.4c-11.2,3-23.4,31.7-16.1,31.7c6.8,0,13.6,0.1,20.5,0.2l-20.5-0.2
	c1.2,3.3,5.9,8.1,10.9,4.2C614.2,1404.3,614.4,1416.3,631.3,1407.8z M842.7,1372.9l-57.7-0.2
	C806.3,1372.4,829.3,1372.2,842.7,1372.9L842.7,1372.9z"/>
<path class="st2" d="M970.1,246.8c10.9-18.8,11.6-55.8,6.1-79.2c-7-29.6-16.2-33.3-20.2-34.8l-0.7-0.3c-0.9-3.3-1.8-6.6-2.6-9.7
	c-3-11.2-5.6-20.9-6.2-23.6c-5.3-21.3-14.5-24.3-26.8-22.1c-2.3,0.4-4.5,0.8-6.7,1.2c-5.3,1.1-10.7,2-16.1,2.5
	c-6.8,0.6-11.9,1.9-14.8,5.9c-2.6,3.7-2.9,9.3-0.8,17.5c3.7,14.6,14,52.1,18.7,67.3c0.9,2.8,1.5,4.5,1.9,5.8c0.5,1.2,0.8,2.5,1,3.8
	l0.1,0.3c1.5,5,4,8.8,7.3,11.3c3,4.4,8.5,10.7,19,21.2c5.2,5.1,9.8,15.3-9.8,44.5c-4.1,6.2-8.6,12.8-13.2,19.5
	c-21.1,31.3-45,66.7-50.3,78c-4,8.5-29.8,45.5-46.4,67.6c0.5,0.1,0.9,0.3,1.3,0.6l0.5,0.5c0.4,0.4,0.9,0.8,1.5,1.4
	c16.4-21.9,42.4-58.9,46.8-68.3c5.2-10.9,29-46.2,50-77.4c4.6-6.8,9-13.4,13.2-19.5c16.4-24.5,19.3-39.8,9.2-49.7
	c-6.6-6.6-11.1-11.4-14.2-15c-0.8-0.9-1.5-1.8-2.1-2.6c-1-1.3-1.9-2.5-2.5-3.4c-0.9-1.3-1.6-2.7-2.1-4.1c-2.5-7.5-1.1-8.8-1-8.8
	c0.2-0.1,0.3-0.1,0.5-0.1c1,0,3.1,0.6,6.9,3.4c1.8,1.4,3.6,2.8,5.2,4.4c2.8,2.5,5.5,5,9.1,6.2c1.8,0.6,3.6,0.9,5.5,0.8
	c1.3,0,2.7-0.2,4-0.4c1.6-0.3,3.1-0.9,4.6-1.7c1.8-1,3.4-2.1,5-3.3c1.5-1.2,2.9-2.5,4.2-3.9c3.8-4.2,4.2-12.5,3.3-21.4
	c-0.6-6.4-1.8-13-2.8-18.5l-0.2-1.3l-0.2-1c-0.2-1.2-0.4-2.3-0.4-3.5c0.6,0.2,1.2,0.5,1.8,0.8c3.9,2.2,10.2,8.3,15.6,31
	s4.7,58.2-5.7,76.2c-8,13.8-15.1,27.5-22,40.8c-8.1,15.7-16.6,31.9-26.4,48.2c-14.6,24.4-28.8,48.4-33.9,59.2
	c-3.3,6.9-20.4,39.6-38.2,70.9l1.4,1.7l1.4,1.7c18.2-31.8,35.8-65.5,39.1-72.5c5-10.6,19.2-34.6,33.7-58.8
	c9.9-16.5,18.3-32.7,26.5-48.4C955.1,274.1,962.2,260.5,970.1,246.8z"/>
<path class="st2" d="M633.7,1094.9c0.5,0,1-0.2,1.4-0.5c0.9-0.7,2.5-1.9,12.3-32.4l-1.3-2.5l-1.3-2.5c-7.5,23.6-10.6,31.2-11.8,33.5
	c-10.7-3.6-27.9-8.6-46.2-13.8c-31.1-8.9-66.4-18.9-82.2-26.2c-1.7-0.8-7-2.4-14.4-4.7c-9-2.8-21.5-6.7-31.6-10.4
	c-15.2-5.6-17.9-8.1-18.3-8.7c1.2-9.2,14.9-60.8,31.7-112.3c16.4-50,27.7-75.3,35.1-88.1c1.3-2.3,2.5-4.2,3.6-5.8
	c1-1.5,2.1-2.9,3.4-4.2c2-2.1,3.3-2.7,4.1-2.9l0,0c3.7-0.7,11.6,0.7,22,3.3l2,0.5l2,0.5c11.6,3.1,25.7,7.5,40.6,12.2
	c0.1-0.7,0.3-1.3,0.4-2s0.3-1.3,0.4-2c-14.8-4.7-28.7-9-40.1-12l39-113.5c1.9,1.2,4.1,1.9,6.3,2.2c1,0.1,2,0.2,3,0.2
	c12.5,0,29.7-8.8,39.6-15.9c0.2-1,0.4-2,0.5-3s0.4-2,0.5-3c-8.6,7.2-30.4,19.3-43.2,17.6c-2-0.2-3.9-0.9-5.5-2.1
	c-0.6-0.5-1.1-1-1.6-1.7c-0.1-0.1-0.2-0.2-0.3-0.4c-0.4-0.6-0.8-1.2-1.1-1.9c-8.2-15.3-2.9-42.2,2.5-61.8c1.1-3.8,2.1-7.3,3.1-10.4
	c0.1-0.3,0.2-0.5,0.2-0.8l-2.2,0.2h-0.1l-2.2,0.2c-0.9,2.9-1.8,6-2.8,9.3c-16.6,33.5-36.9,87-43.8,105.3
	c-8.5,22.8-20.6,56.8-27.4,79.6c-3.9,4.4-9.2,12.9-16.5,29.3c-7.7,17.3-16.4,40.7-25.8,69.7c-16.6,50.6-30.8,103.7-31.9,113.3
	c-0.6,5.1,11.2,10.3,52.8,23.2c6.7,2.1,12.4,3.9,13.9,4.5c16.1,7.5,51.6,17.6,82.8,26.5c19,5.4,36.9,10.5,47.3,14.1
	C633.2,1094.9,633.4,1094.9,633.7,1094.9z M541.8,735.6c10.7-28.6,23.6-61.2,35.2-86.9c-3.3,17.5-4,36,3.7,47.8
	c0.2,0.3,0.4,0.6,0.6,0.8l-39.7,115.4c-11.3-2.8-19.8-4.3-24.1-3.5l0,0c-0.5,0.1-0.9,0.2-1.4,0.4
	C521.6,791.9,530.4,766.2,541.8,735.6z"/>
<path class="st2" d="M762.9,1169.6c-11.6,27.1-22.8,53.3-31.8,77.1l15.7,38.4H811l-32-153.3C773.6,1144.7,768.2,1157.3,762.9,1169.6
	z"/>
<path class="st2" d="M831.1,771.3H611.3c-10.1,17.3-17.4,36.2-21.6,55.8l-0.4,2c-0.1,0.7-0.3,1.3-0.4,2
	c-6.7,34.5-4.2,71.8,7.5,109.8c10.4,33.5,32,76.2,50.2,110.4l1.3,2.5c0.5,0.8,0.9,1.7,1.3,2.5c3.2,5.9,6.2,11.5,9,16.8
	c6.2,11.6,11.3,20.9,14.3,27.1L698,960c1.5-11.2-4.2-19.1-11.5-28.9l-0.2-0.2L685,929l-1.5-2.1c-10.4-14.4-22.2-34-18.1-71.7
	c0.1-0.7,0.2-1.4,0.2-2s0.2-1.4,0.3-2.1c0.7-5.2,1.7-10.6,3-16.5l4,0.9c-1.3,5.9-2.3,11.5-3,16.7c-0.1,0.7-0.2,1.4-0.3,2
	s-0.2,1.4-0.2,2c-3.5,32.6,5.3,50.6,14.8,64.4c0.6,0.8,1.1,1.6,1.7,2.4s1.2,1.7,1.8,2.5l2,2.7c7,9.5,13.2,17.9,12.7,29.4h0.2
	l-0.5,2.5c-0.1,1.1-0.3,2.2-0.6,3.3l-57.8,319.9h70.6c3.3-11.4,7.5-23.7,12.4-36.7l1.1-2.8c0.3-0.9,0.7-1.9,1.1-2.8
	c8.8-22.8,19.4-47.6,30.3-73.2c6-14,12.2-28.5,18.3-43.2c0.5-1.1,0.9-2.2,1.4-3.3l1.4-3.4C826.5,1006.4,870.1,878.2,831.1,771.3z"/>
<path class="st2" d="M620.8,1413c2.8,0,6.5-0.9,11.4-3.3l0.5-0.2l0,0c2.2,3.2,5.5,3.2,12.1-0.2c0.1,0,0.2-0.1,0.3-0.1
	c0.1,0.2,0.3,0.4,0.4,0.6c2.6,3.8,6,5.1,15.5-0.8l0.1-0.1c0.4,0.2,0.7,0.4,1,0.7c3.1,2.2,7.2,4.1,16.2-2.1c1.8,2.6,4.9,4.1,13.8,0.4
	c0.5-0.2,1-0.4,1.6-0.4c0.1,0.2,0.3,0.4,0.4,0.6c2.1,3.4,5.1,4.3,14.4-0.5c0.7-0.4,1.5-0.7,2.3-0.9c0.2,0.3,0.3,0.5,0.4,0.8
	c0.6,1.6,1.8,2.9,3.4,3.6c2.5,0.9,6.1,0,11.7-2.8c0.4-0.2,0.8-0.4,1.2-0.5c0.1,0.1,0.2,0.3,0.2,0.4c0.5,1.4,1.6,2.4,3,2.9
	c2.1,0.7,4.9,0,9.2-2.3c0.1-0.1,0.3-0.1,0.4-0.2c0.3,0.3,0.7,0.6,0.9,0.9c2.2,2.6,5,4.5,10.8,0.6c0.6,1,1.6,1.7,2.8,1.9
	c2.1,0.3,4.7-1.1,8.5-4.7c1-0.9,1.1-0.9,2.8-0.2c2.6,1.1,5.4,1.5,8.2,1.3c0.3,0,0.6,0,0.9,0.1l0,0c1.5,2.3,2.9,3.6,4.6,4
	c2.2,0.5,4-0.6,5.3-1.4c0.5-0.3,1-0.6,1.5-0.8c0,0,0.2,0,0.5,0.4c3,3.7,6.9,1.4,9,0.1c0.5-0.3,1.1-0.6,1.7-0.9
	c0.8,1,1.9,1.7,3.1,1.9c1.9,0.2,3.4-1,4.6-1.9c1.6-1.3,1.7-1.2,2.1-0.8c4.1,3.9,8,1.1,10.1-0.5c0.5-0.4,0.9-0.7,1.4-1l0.1,0.2
	c0.6,1.4,1.8,2.5,3.2,3c2,0.5,3.7-0.7,5.2-1.8c0.8-0.6,1.9-1.4,2.4-1.3c0.1,0,0.5,0.1,1.1,1.2c0.8,1.6,2.2,2.7,3.9,3.1
	c2.5,0.4,4.6-1.3,6.4-2.8c0.7-0.7,1.6-1.3,2.5-1.7c0,0,0.3,0.2,0.8,1.2c0.4,1,1.3,1.7,2.3,2c2.3,0.6,4.7-1.2,7-3
	c0.4-0.3,0.9-0.7,1.4-1c0.2,1.1,0.9,2.1,1.9,2.7c2,1,4-0.4,5.8-1.6c0.3-0.2,0.8-0.5,1.2-0.8c0.5,1.5,1.6,2.8,3.1,3.4
	c2.6,0.8,5-1,7.2-2.7c0.5-0.4,1.3-1,1.8-1.3c0.7,2.2,4.7,3.6,5.5,3.8c3,0.9,5.3,0.7,6.8-0.7l0.4-0.3c2.1-1.9,2.6-2.5,2.8-3.1
	l-3.8-1.4c0-0.1,0.1-0.2,0.2-0.4c-0.3,0.3-1.5,1.5-1.9,1.9l-0.4,0.4c-0.8,0.5-4.5-0.7-5.6-1.7c-0.1-0.3-0.2-0.6-0.3-0.8l12.2-0.2
	l-1-4.4c-2.2-10-5.7-26.2-15.5-28.1c0.1-0.2,0.1-0.3,0.2-0.5c4.2-12-21.7-35.5-31.6-40.9c-8.5-4.6-13.8-10.1-18-14.5
	c-4.9-5-8.7-8.6-13.8-8.7l-3-17.2l-0.4-2l-0.1-0.3l-2,0.3l-2,0.3l0.3,1.7l3.1,17.8c-4.6,1.4-10.3,5.2-18.2,12.5
	c-1.9,1.8-3.8,2.6-5.6,2.5c-3.9-0.2-7.9-4.6-12.1-9.3c-4-4.5-8.7-9.7-14.2-11.3l-3.4-12.3l-0.6-2l-0.2-0.6l-2,0.6l-2,0.5l0.4,1.5
	l3.3,11.9c-2.4,0.3-4.7,1.2-6.7,2.6c-7.7,5.2-12.7,11.3-15.3,19.1l-1.1-0.9c-12.8-11.1-20-15.1-24.8-14.1c-3.6,0.8-5.1,4-6.5,7.2
	c-0.3,0.6-0.5,1.2-0.8,1.8c1.6-9.8,4.1-23.9,5.3-29.2c0.1-0.6,0.3-1.1,0.4-1.5l-2-0.6l-2-0.6c0,0.2-0.1,0.3-0.1,0.6
	c-0.1,0.5-0.3,1.2-0.5,2c-1.6,7.6-5.1,26.6-6.2,35.2c-1.8,0.9-3.7,1.4-5.7,1.5c-22.2,1-26.5-7.3-30.2-14.6c-1.6-3.1-3.2-6.2-6-8.2
	c2.1-7.2,3.4-11.6,4.1-13.8c0.3-0.9,0.4-1.5,0.5-1.7l-1.9-0.4l-2.1-0.4c0,0.1-0.1,0.3-0.1,0.4c-0.1,0.4-0.3,1.1-0.6,2
	c-0.8,2.7-2.1,7.3-3.6,12.1c-1.3-0.3-2.7-0.5-4-0.5c-9,0-16.7,13-21.9,27.2l-2.4,2.8c0.4,0.3,0.7,0.6,1.1,0.9
	c-3.6,10.8-5.7,21.7-5.7,27.3c-0.1,1.5-0.3,3.1-0.6,4.6c-0.5,2.4-0.9,4.9-1,7.4c-9.7,4.2-19.3,23.3-18.3,31.1
	c0.1,1.7,1.2,3.3,2.8,3.9c1.3,2.6,3.5,4.6,6.3,5.6c2.4,0.7,4.9,0.2,6.9-1.2c0.2,0.2,0.3,0.3,0.5,0.5
	C614.3,1411.7,617.5,1413.1,620.8,1413z M643,1405.6c-3.9,2-5.6,2.2-6.2,2.1c-0.3,0-0.3,0-0.7-0.6c-1-1.4-2.5-2.8-5.7-1.2
	c-10.2,5.2-13.1,2.2-15.1,0.3c-0.6-0.6-1.3-1.2-2-1.6c10.1,0.1,20.3,0.3,30.4,0.6C643.4,1405.4,643.2,1405.4,643,1405.6L643,1405.6z
	 M648.9,1407.4c-0.5-0.8-1.2-1.5-2-2h1.3l10.1,0.2C650.8,1410.2,649.7,1408.6,648.9,1407.4L648.9,1407.4z M664.5,1406.1l-0.5-0.3
	l8.7,0.2C667.8,1408.5,666,1407.1,664.5,1406.1L664.5,1406.1z M698.6,1406.5c-0.3,0-0.6-0.1-0.7-0.3h2.9
	C700.1,1406.4,699.3,1406.5,698.6,1406.5L698.6,1406.5z M715.8,1406.9c-0.3-0.1-0.5-0.3-0.8-0.9l3.6-0.1h2.2
	C717.6,1407.2,716.3,1407,715.8,1406.9L715.8,1406.9z M619.1,1362.8c0.4-1.8,0.6-3.5,0.7-5.3c0-5.1,1.7-14.7,5-24.8
	c5.2,3.4,9.8,4.8,14.2,4.8c7.5,0,14.3-4.1,21.6-8.5c1.8-1.1,3.8-2.3,5.7-3.4l-0.6-1.1c4.9,2.8,12.1,4.5,23,4c2.5-0.1,5-0.7,7.3-1.8
	c0.7-0.4,1.4-0.8,2.1-1.4c3-2.4,4.5-5.7,5.8-8.4s2.2-4.6,3.7-4.9c3.2-0.7,10.1,3.6,21.2,13.2l2.6,2.2c-3.3,13.9-2.7,17.9-2.1,22.2
	c0.5,3.3,1,6.7-0.3,15.7c-0.4,1.8-0.3,3.6,0.2,5.3c-22.2,0.8-47,1-50.5,0.9c-1.5-0.1-5-0.1-9.9-0.1h-2c-13,0-42.6,0-48.4-1.5
	C618.3,1367.4,618.6,1365,619.1,1362.8L619.1,1362.8z M627.7,1324.7c5.4-13.4,11.7-21.4,16.9-21.4c0.9,0,1.9,0.1,2.8,0.3
	c1.4,0.3,2.7,1.1,3.7,2.1c1.5,1.7,2.7,3.7,3.6,5.8c1.8,3.6,4,7.8,8.4,11.1c-1.6,0.9-3.1,1.8-4.6,2.8c-11.7,7.1-19.8,12-32.2,3.2
	C626.7,1327.3,627.2,1326,627.7,1324.7L627.7,1324.7z M770,1315.7c2.4,2.9,5.2,5.6,8.2,8c-1.5,1-2.9,2.2-4.1,3.5
	c-3.7,4.7-11.8,4.8-18.3,5H754c-3,0.1-10.3-2-15-3.8c-1.2-0.4-2.4-1-3.5-1.6c0.1-0.3,0.2-0.7,0.3-1c1.5-5.2,4.7-12.1,14.2-18.5
	C757.2,1302.3,762.3,1307.1,770,1315.7L770,1315.7z M785,1326.4c2.9,0.1,5.8-1.1,8.5-3.6c18.3-17,21.6-13.6,30.3-4.6
	c4.5,4.6,10,10.3,19,15.3c10.9,6,32.6,27.9,29.7,35.9c-0.2,0.6-0.6,1.2-1.2,1.6l-28.7-0.1c-6.8-0.3-15.8-0.5-25.9-0.5
	s-21.1,0.1-31.8,0.3h-4.3c-0.2-0.1-0.4-0.2-0.6-0.2l-0.1,0.2h-12.6h-7.9l-24.6-0.1c-0.3-0.1-0.5-0.2-0.8-0.3c-0.4-0.2-0.7-0.4-1-0.7
	c-0.5-0.6-0.6-1.8-0.3-3.9c1.4-9.6,0.8-13.5,0.3-16.9c-0.5-3.7-1-7,1.4-17.9c0.7,0.4,1.5,0.8,2.3,1.1c1.9,0.8,3.8,1.4,5.7,2
	c1.6,0.5,3.2,0.9,4.6,1.2c2.2,0.6,4.4,0.9,6.7,1.1h0.1h1.7c7.4-0.1,16.6-0.3,21.5-6.5c1.1-1.1,2.3-2.1,3.7-3
	c0.5-0.3,0.9-0.7,1.3-0.9C783.1,1326.2,784.1,1326.3,785,1326.4L785,1326.4z M800.6,1400.8l-22.2,0.3l-9,0.1l-47.7,0.6l0,0
	c0.8-7.4,3-22.2,9.8-27.1h2.7l44.6,0.1h6.1l57.7,0.2l29.8,0.1h1.6c7.9,0,11.3,15.2,13.4,24.6L800.6,1400.8z M731.9,1406.9
	c-0.2-0.1-0.3-0.3-0.6-0.9c0-0.1-0.1-0.2-0.1-0.3l5.1-0.1C733.2,1407.1,732.2,1406.9,731.9,1406.9L731.9,1406.9z M750.4,1406
	c-4.1,3-4.8,2.1-6,0.7c-0.3-0.4-0.6-0.7-1-1l7.9-0.1C750.9,1405.6,750.6,1405.8,750.4,1406L750.4,1406z M755.5,1407.7
	c-0.1-0.1-0.2-0.3-0.3-0.5c-0.4-0.8-1-1.4-1.7-1.8l5.6-0.1C756.8,1407.2,755.8,1407.6,755.5,1407.7L755.5,1407.7z M803.1,1406.5
	c-0.5,0.4-1,0.7-1.5,1c-0.2-0.2-0.5-0.4-0.6-0.6c-2-2.6-5-0.9-6.8,0.2c-2.7,1.6-3.2,1.5-3.8,0.8c-2.8-3.4-5.9-1.5-7.4-0.5
	c-0.8,0.5-1.6,1-2.1,0.9c-0.3-0.1-1.2-0.5-2.5-2.9l-0.1-0.2l27.6-0.3C804.8,1405.2,803.9,1405.7,803.1,1406.5L803.1,1406.5z
	 M815.5,1405.1c-2.5,1.9-3.4,2.2-4.9,0.8c-0.5-0.5-1.1-0.9-1.8-1.2l7.3-0.1L815.5,1405.1z M825.5,1405.5c-0.5,0.4-1.1,0.8-1.8,1.1
	c-0.2-0.2-0.4-0.5-0.5-0.8c-0.2-0.4-0.5-0.8-0.8-1.2l4.5-0.1C826.3,1404.8,825.9,1405.2,825.5,1405.5L825.5,1405.5z M839.2,1405.8
	c-1,0.8-2.5,2-3.1,1.9c-0.2,0-0.7-0.4-1.1-1.2c-0.5-0.8-1.1-1.5-1.8-2.1l8-0.1C840.4,1404.8,839.7,1405.3,839.2,1405.8L839.2,1405.8
	z M852.1,1404.3c-1,0.8-2.2,1.6-3.3,2.2c-0.4-0.8-0.9-1.6-1.6-2.2L852.1,1404.3L852.1,1404.3z M861.4,1404.2c-0.4,0.3-1,0.7-1.5,1
	c0-0.1,0-0.3,0-0.4c0-0.2,0-0.4-0.1-0.6h1.7L861.4,1404.2z M872.7,1404.2c-0.9,0.7-2.9,2.2-3.5,2.1c0,0-0.4-0.2-0.8-1.5
	c-0.1-0.3-0.2-0.5-0.3-0.8l4.9-0.1L872.7,1404.2z M601,1393.6c2.8-8.3,9.1-18.1,14.7-20.5c1.8,0.7,3.6,1,5.5,1.1
	c3.1,0.3,7.5,0.6,13.2,0.7c10.3,0.3,23,0.3,32.2,0.3c5.7,0,10.2,0,11.8,0.1c0.5,0,1.8,0,3.7,0c7.4,0,24.3-0.2,41.1-0.7l2.7-0.1
	c-5.1,6.7-7.1,18-8.2,27.2c-22.8,0.6-46.4,0-69.4-0.5c-15.9-0.4-32.3-0.7-48.2-0.8C599.9,1400.1,599.6,1398.1,601,1393.6z
	 M609.7,1405.1c-1,0.9-2.4,1.2-3.7,0.9c-0.8-0.3-1.6-0.7-2.2-1.4h6.6C610.2,1404.8,610,1404.9,609.7,1405.1L609.7,1405.1z"/>
<path class="st2" d="M613.6,520.8l1.8,1l1.8,1c-13.4,22.1-21.1,51.7-29.2,85.4c-0.6,2.4-1.2,4.8-1.7,7.3l1.6-0.2l1-0.1l1.2-0.1
	l1.3-0.1l2.5-0.2l16.2-1.6l2.2-0.2l2.2-0.2l23.5-2.3c-0.2-2.2-0.4-4.5-0.7-6.7c-0.2-1.8-0.5-5-0.9-8.9c-0.1-0.7-0.1-1.3-0.2-2
	s-0.1-1.4-0.2-2.1c-1.2-13.6-2.5-32.4-2.5-37.2l4.1-0.2l3,37.5l0.2,2.1l0.2,2.1l1.5,19l0,0c0.2,2.5,0.3,5,0.4,7.5H641h-0.1
	c-0.3,2.7-0.8,5.4-1.7,8c-2.4,8.1-6.7,19.1-8.1,20.5l2.8,3c1.2-1.2,3.1-5.2,5-10c0.8-2,1.5-4.1,2.3-6.3c0.8-2.3,1.5-4.7,2.1-6.8
	c0,15.7-1.3,31.4-3.8,46.9c-0.2,1-0.3,2-0.5,3s-0.3,2.1-0.5,3.2c-4.2,23.8-10.6,47.1-18.9,69.7c-0.6,1.6-1.1,3-1.7,4.4
	c-1.5,3.8-2.7,7-3.7,9.2c-0.1,0.3-0.2,0.6-0.3,0.8h216c0-0.1,0-0.1,0-0.2c-12.4-48.9-20.2-92-23.1-128.7c0.7,0.8,1.4,1.5,2.2,2.1
	c0.6,0.5,1.3,0.7,2.1,0.7c0.2,0,0.4,0,0.5-0.1c0.3-0.1,0.7-0.2,1-0.2c2-0.5,4.5-1,5.9-3.4c0.5-0.8,0.8-1.7,0.9-2.7
	c1,1.9,1.1,2,1.5,2.3c4.7,3.9,8.3,5.2,11.1,3.9c1.4-0.6,2.5-1.8,2.9-3.3c0.6,0.9,1.2,1.7,2,2.4c2.2,2.1,4.2,2.8,5.8,2.8
	c1.1,0,2.1-0.3,3-0.8c3.8-2.3,4.8-8.8,2.6-15.9c-8.4-26.8-24-33.8-38.4-35.1c-0.7-0.1-1.4-0.1-2-0.1s-1.4-0.1-2-0.1
	c1.5-26.2,6.7-46.1,15.1-56.8c3-3.8,11.1-13,19.8-22.6c8-9,16.3-18.3,20.2-23.1c-4-4.9-8.9-10.9-14.1-17.1l-1.4-1.7l-1.6-1.6
	c-13.1-15.7-27.3-32.3-33.4-38.3c-0.4-0.4-0.8-0.8-1.1-1.1c-1,1-2.7,3.2-4.2,5.2c-1.8,2.4-4,5.2-6.6,8.2c-1.7,2-3.4,4-5.4,6
	c-8.4,8.7-19.3,17-32.2,17.7c-1.8,0.1-3.8,0.3-5.7,0.6c-0.2-0.7-0.4-1.3-0.5-2s-0.4-1.3-0.5-2c-4.2-15.9-6.1-28.7-4.2-30.5
	c14.3-14,15.7-38.8,10.6-61.2l-0.5-2c-0.2-0.7-0.3-1.3-0.5-2c0.7-0.3,1.3-0.6,1.9-1.1c9-6.6,8.2-27.4,7.5-34.9l-15.5,6.5
	c-0.1-0.7-0.2-1.4-0.2-2.1s-0.2-1.4-0.3-2.1c-4-26.7-18.8-44.8-40.7-48.8c-23.6-4.4-47.9,9-59,32.5c-2.6,5.5-5.2,12.1-8.2,19.6
	c-14.5,36.2-36.3,90.9-99.6,139.2c-0.7,0.5-1.1,1.4-1,2.3C544.7,479.6,545,483.6,613.6,520.8z M649,337.4c3-7.5,5.6-14,8.2-19.4
	c10.3-21.9,32.8-34.3,54.6-30.2c20.3,3.8,34,21,37.5,46.5c0.1,0.7,0.2,1.4,0.2,2.1s0.2,1.4,0.2,2.1c0,0.4,0.1,0.8,0.1,1.2
	c-0.1,0.3-0.3,0.6-0.5,0.8c-0.5,0.5-1,1-1.5,1.5c-0.5,0.4-1,0.8-1.6,1.3c-6.6,5.1-20.1,12.8-24.2,13.9l-2.1,0.6l0.7,2.1
	c0.1,0.3,0.3,0.6,0.5,0.9c0.3,0.5,1.1,1.8,1.4,2.2c0.8,2.2,1.5,4.4,2.2,6.5c0.3,0.9,0.6,1.8,0.8,2.6s0.5,1.8,0.8,2.7
	c9.5,32.6,9.6,64.8,6.1,92.2c-0.1,0.7-0.2,1.5-0.3,2.2l-0.3,2.2c-1.2,8.5-2.7,16.5-4.4,23.8c-0.2,0.7-0.3,1.5-0.5,2.2
	s-0.3,1.5-0.5,2.2s-0.3,1.2-0.4,1.7c-5.3,21.4-13,42.1-22.8,61.8c-24.9-12.7-55.9-29-83.6-43.9l-1.8-1l-1.8-1
	c-33.9-18.4-62.1-34.6-66.8-39.7C612.4,428.8,634.4,373.8,649,337.4z M756.2,369.2c0.2,0.7,0.3,1.3,0.5,2
	c4.9,21.1,3.8,44.5-9.5,57.4c-1.8,1.8-3.4,6.1,0.5,23.9c0.8,3.5,1.7,7,2.5,10.3c0.2,0.7,0.3,1.3,0.5,2l0.2,0.9
	c-0.6,0.3-1,0.8-1.3,1.4c-0.2,0.3-0.3,0.7-0.3,1c-0.1,0.4-0.3,1.4-0.6,3.2c-0.5,3-2,11-2.5,12.3c-3,4.5-8.4,8.2-14.4,10.4
	c1.6-7.3,3.1-15.2,4.2-23.6c0.1-0.7,0.2-1.5,0.3-2.2l0.3-2.2c3.4-28.5,3-62-7.5-95.9c-0.2-0.8-0.5-1.6-0.8-2.4s-0.5-1.5-0.7-2.3
	c-0.5-1.3-0.9-2.6-1.4-4c-0.2-0.4-0.4-0.8-0.7-1.2c5.1-2.3,10-5,14.7-8c3.3-2.1,5.8-3.8,7.8-5.3c1.2,2.3,2.3,4.8,3.3,7.4
	c1.7,4.2,3.1,8.4,4.3,12.8C755.8,367.8,756,368.5,756.2,369.2z M807.6,594.8c0.7,0,1.4,0.1,2,0.2c13.2,1.2,27,7.8,34.6,32.2
	c1.9,6.2,0.7,10.3-0.8,11.2c-1.3,0.8-3-0.7-3.7-1.4c-1.7-1.7-3.2-4.7-4.6-8.1c-1.5-8.1-6.7-18-13.3-21.7l-2,3.6
	c4.7,2.8,7.5,9.6,10.2,16.3c0.4,1,0.8,2,1.2,3c0.2,1.3,0.3,2.6,0.3,3.9c-0.1,1.6-0.5,2.8-1.1,3.1c-0.3,0.1-2,0.6-6.6-3.1
	c-0.4-0.7-1.7-3.1-2.8-5.2c-1.5-2.8-3.3-6.4-4.8-9.1c-2.6-4.7-3.4-6-5.2-5.7c-0.6,0.1-1,0.4-1.3,0.9c-0.2,0.3-0.3,0.7-0.4,1.1
	c0,0.6,0.1,1.2,0.5,1.7c0.2,0.5,0.6,1.1,1,2c1.5,2.6,2.8,5.4,3.8,8.3c1.3,4.5,1,6.5,0.5,7.3s-1.6,1.1-3.3,1.5l-0.6,0.1
	c-0.1-0.1-0.3-0.2-0.4-0.4c-0.8-0.8-1.5-1.6-2.2-2.5l-0.9-1.1c-0.5-0.6-1-1.2-1.4-1.7c-0.6-9.2-0.9-18-0.8-26.3
	c0-3.5,0.1-6.9,0.2-10.2C806.3,594.8,807,594.8,807.6,594.8z"/>
<path class="st2" d="M513,969.4h0.2c11.1,0.1,17.9,10.1,20.2,29.7c0.1,0.9,0.4,3.1,2.3,3.8c2.1,0.8,4-1,7-3.9
	c5-4.8,13.3-12.8,26.2-13.3c0.9,2.2,2,4.4,3.4,6.4c2.3,3.5,3.9,6,3.9,22.7c0,1,0,4.2,2.3,5.6c0.7,0.4,1.4,0.6,2.2,0.6
	c2.5,0,5.8-1.8,10.5-4.5c4.5-2.6,9.2-5,14-7l1-0.4c3.2-1.2,5.2-2,6.1-2.8l-2.7-3.1c-1.5,0.8-3.1,1.5-4.8,2l-1.1,0.4
	c-5,2.1-9.8,4.5-14.4,7.3c-3.3,1.9-7.4,4.2-8.5,4c-0.3-0.6-0.4-1.3-0.3-2c0-17.9-2-21-4.6-24.9c-1.5-2.1-2.6-4.4-3.5-6.9l-0.5-1.4
	h-1.5c-15.3,0-25.2,9.4-30.4,14.5c-0.8,0.8-1.7,1.6-2.4,2.2c-3.2-27.1-14.9-32.8-24.2-32.9H513c-17.6,0-39.4,21-40.4,28.1l4.1,0.5
	C477.3,989.8,496.9,969.4,513,969.4z"/>
<path class="st2" d="M464,1004.1l4,0.9c2.3-10.2,18.4-49.1,32.6-83.3c14.5-35.1,21.8-52.7,23.4-59c6.5,0.6,16.6,4.2,26.3,7.8
	c11.2,4.1,22.7,8.2,30.9,8.7c0.7,0,1.4,0.1,2,0l-0.1-4.1c-0.6,0-1.3,0-2,0c-7.5-0.5-18.6-4.5-29.3-8.4c-11.5-4.2-22.3-8.1-29.4-8.1
	h-2.2l0.2,2.2c-0.3,3.4-12.6,33.2-23.5,59.4C482.5,954.6,466.4,993.6,464,1004.1z"/>
<path class="st1" d="M538.3,896.9c-11,0-19.4,5.6-23.1,15.4c-4.4,11.6-1.2,26.2,7.6,34c4.1,3.7,9.5,5.7,15,5.7
	c4.4,0,9.7-1.2,15.8-4.3c11.7-6.1,17.6-18.3,14.7-30.3C565.8,907.5,556.7,896.9,538.3,896.9z"/>
<rect x="842.9" y="55.6" transform="matrix(0.4613 -0.8873 0.8873 0.4613 387.8218 790.6044)" class="st1" width="4.1" height="40.8"/>
<rect x="819.2" y="101.3" transform="matrix(0.9835 -0.1807 0.1807 0.9835 -4.8966 152.9745)" class="st1" width="36" height="4.1"/>
<rect x="852.4" y="122.7" transform="matrix(0.2832 -0.9591 0.9591 0.2832 501.92 921.1006)" class="st1" width="29.5" height="4.1"/>
<rect x="863.2" y="52.3" transform="matrix(0.1134 -0.9936 0.9936 0.1134 727.2131 923.6291)" class="st1" width="35.9" height="4.1"/>
</svg>
