<?xml version="1.0" encoding="utf-8"?>
<!-- Generator: Adobe Illustrator 27.0.0, SVG Export Plug-In . SVG Version: 6.00 Build 0)  -->
<svg version="1.1" id="layer" xmlns="http://www.w3.org/2000/svg" xmlns:xlink="http://www.w3.org/1999/xlink" x="0px" y="0px"
	 viewBox="0 0 1000 1000" style="enable-background:new 0 0 1000 1000;" xml:space="preserve">
<style type="text/css">
	.st0{fill:#FFF0DC;}
	.st1{fill:#A26BB4;}
	.st2{fill:#4B0062;}
	.st3{fill:none;}
	.st4{fill:#F48001;}
	.st5{fill:#F44B1B;}
</style>
<path class="st0" d="M195.2,495.3C137.8,495.3,91,542.7,91,600.9c0,58.2,46.7,105.5,104.2,105.5S299.4,659,299.4,600.9
	C299.4,542.7,252.7,495.3,195.2,495.3z"/>
<rect x="597.6" y="737" transform="matrix(0.9497 -0.3132 0.3132 0.9497 -225.5847 242.8703)" class="st1" width="91.3" height="173.4"/>
<path class="st2" d="M626.3,921.8l-0.4-1.2l-54.7-165.8l89-29.4l0.4,1.2l54.7,165.8L626.3,921.8z M574.3,756.4l53.5,162.2l84.4-27.8
	l-53.5-162.3L574.3,756.4z"/>
<rect x="474.5" y="756.6" class="st1" width="91.3" height="173.4"/>
<path class="st2" d="M567,931.2h-93.8V755.4H567V931.2z M475.7,928.8h88.9V757.9h-88.9V928.8z"/>
<rect x="474.5" y="843.3" class="st0" width="91.3" height="56.3"/>
<path class="st2" d="M567,900.9h-93.8v-58.8H567V900.9z M475.7,898.5h88.9v-53.9h-88.9V898.5z"/>
<rect x="606.4" y="822.2" transform="matrix(0.9497 -0.3132 0.3132 0.9497 -233.5132 246.973)" class="st0" width="91.3" height="56.3"/>
<path class="st2" d="M616.8,892.9l-18.3-55.8l89-29.4l18.4,55.8L616.8,892.9z M601.5,838.7l16.9,51.1l84.4-27.8l-16.9-51.1
	L601.5,838.7z"/>
<rect x="474.5" y="855.4" class="st2" width="91.3" height="10.9"/>
<path class="st2" d="M567,867.5h-93.8v-13.3H567V867.5z M475.7,865.1h88.9v-8.4h-88.9V865.1z"/>
<rect x="603.1" y="834.9" transform="matrix(0.9497 -0.3132 0.3132 0.9497 -230.5265 245.4316)" class="st2" width="91.3" height="10.9"/>
<path class="st2" d="M606.3,861.2l-4.2-12.7l89-29.4l4.2,12.6L606.3,861.2z M605.3,850.1l2.6,8l84.4-27.8l-2.6-8L605.3,850.1z"/>
<path class="st0" d="M249,418.7h268.6L378.3,753.3L195.9,530.8C159.3,486,191.1,418.7,249,418.7z"/>
<path class="st2" d="M378.6,755.7L194.9,531.5c-24.4-29.8-20-73.8,9.8-98.3c12.5-10.2,28.1-15.8,44.2-15.8h270.6l-0.7,1.7
	L378.6,755.7z M249,419.9c-37.2-0.1-67.4,30.1-67.5,67.3c0,15.6,5.4,30.7,15.3,42.8l181,221l137.9-331H249z"/>
<path class="st0" d="M713.6,112c-3.6-23.2-22.9-40.8-46.3-42.4l0,0c-27.8-2-51.8,19-53.8,46.7c-0.1,1.7-0.2,3.5-0.1,5.2l3.4,102.2
	c-19.4-14.5-43.1-22.1-67.4-21.6l0,0c-51.8,1-95.6,38.3-105,89.2l-96.8,527.1h476.8L713.6,112z"/>
<path class="st2" d="M825.9,819.6H346.2l0.3-1.4L443.4,291c9.6-51.4,53.9-89,106.1-90.2c23.7-0.6,46.9,6.6,66.1,20.4l-3.4-99.7
	c-1-28.5,21.3-52.4,49.8-53.3c26-0.9,48.7,17.8,52.7,43.5L825.9,819.6z M349.1,817.2h474L712.3,112.2c-4.3-26.8-29.5-45.1-56.3-40.8
	c-24.4,3.9-42.2,25.4-41.4,50.1l3.4,104.7l-2-1.5c-19.1-14.4-42.6-22-66.5-21.4c-51.1,1.1-94.4,37.9-103.8,88.2L349.1,817.2z"/>
<line class="st3" x1="633.9" y1="732" x2="627.6" y2="544.2"/>
<rect x="627.1" y="548.6" transform="matrix(0.9996 -2.998651e-02 2.998651e-02 0.9996 -18.9868 19.1291)" class="st2" width="2.5" height="188"/>
<path class="st0" d="M622.7,396.4l-9.2-275c-0.9-27.8,20.9-51.1,48.7-52c1.7-0.1,3.5,0,5.2,0.1l0,0c23.5,1.6,42.7,19.3,46.3,42.5"/>
<path class="st2" d="M621.5,396.5l-9.2-275c-1-28.5,21.3-52.4,49.8-53.3c26-0.9,48.7,17.8,52.7,43.5l-2.4,0.4
	C708.1,85.3,682.9,67,656,71.3c-24.4,3.9-42.2,25.4-41.4,50.1l9.3,275L621.5,396.5z"/>
<line class="st3" x1="717.6" y1="699.1" x2="728.5" y2="818.4"/>
<rect x="721.8" y="698.9" transform="matrix(0.9959 -9.080639e-02 9.080639e-02 0.9959 -65.9114 68.7913)" class="st2" width="2.4" height="119.8"/>
<line class="st3" x1="406.8" y1="818.4" x2="452.3" y2="570.8"/>
<rect x="303.6" y="693.3" transform="matrix(0.1815 -0.9834 0.9834 0.1815 -331.5013 990.7678)" class="st2" width="251.7" height="2.4"/>
<circle class="st2" cx="498.1" cy="309.9" r="21.1"/>
<path class="st2" d="M498.1,332.3c-12.4,0-22.4-10-22.4-22.4s10-22.4,22.4-22.4c12.4,0,22.4,10,22.4,22.4
	C520.4,322.3,510.4,332.3,498.1,332.3z M498.1,290c-11,0-19.9,8.9-19.9,19.9c0,11,8.9,19.9,19.9,19.9c11,0,19.9-8.9,19.9-19.9
	C518,298.9,509,290,498.1,290z"/>
<circle class="st2" cx="575.3" cy="309.9" r="21.1"/>
<path class="st2" d="M575.3,332.3c-12.4,0-22.4-10-22.4-22.4s10-22.4,22.4-22.4c12.4,0,22.4,10,22.4,22.4
	C597.7,322.3,587.6,332.3,575.3,332.3z M575.3,290c-11,0-19.9,8.9-19.9,19.9c0,11,8.9,19.9,19.9,19.9c11,0,19.9-8.9,19.9-19.9
	C595.2,298.9,586.3,290,575.3,290z"/>
<circle class="st1" cx="953.4" cy="378.8" r="17.6"/>
<circle class="st1" cx="919.5" cy="446.7" r="10.1"/>
<circle class="st1" cx="806.5" cy="100.8" r="15.8"/>
<circle class="st1" cx="291.7" cy="292.1" r="14.3"/>
<rect x="823.3" y="216.6" class="st2" width="2.4" height="58.8"/>
<rect x="795.1" y="244.7" class="st2" width="58.8" height="2.4"/>
<rect x="823.3" y="224.5" transform="matrix(0.7071 -0.7071 0.7071 0.7071 67.5765 655.0345)" class="st2" width="2.4" height="42.9"/>
<rect x="803.1" y="244.7" transform="matrix(0.7071 -0.7071 0.7071 0.7071 67.5765 655.0345)" class="st2" width="42.9" height="2.4"/>
<ellipse class="st2" cx="824.5" cy="206.8" rx="3.4" ry="4.8"/>
<ellipse class="st2" cx="824.5" cy="285.1" rx="3.4" ry="4.8"/>
<ellipse class="st2" cx="863.6" cy="245.9" rx="4.8" ry="3.4"/>
<ellipse class="st2" cx="785.3" cy="245.9" rx="4.8" ry="3.4"/>
<rect x="222.7" y="777.4" class="st2" width="2.4" height="44.6"/>
<rect x="201.7" y="798.5" class="st2" width="44.6" height="2.4"/>
<rect x="222.7" y="783.5" transform="matrix(0.7071 -0.7071 0.7071 0.7071 -499.893 392.5938)" class="st2" width="2.4" height="32.5"/>
<rect x="207.7" y="798.5" transform="matrix(0.7071 -0.7071 0.7071 0.7071 -499.8808 392.5888)" class="st2" width="32.5" height="2.4"/>
<ellipse class="st2" cx="253.6" cy="799.7" rx="3.6" ry="2.6"/>
<ellipse class="st2" cx="194.3" cy="799.7" rx="3.6" ry="2.6"/>
<rect x="234.2" y="138.6" class="st2" width="2.4" height="37"/>
<rect x="224" y="155.9" class="st2" width="22.9" height="2.4"/>
<rect x="265.8" y="166.9" class="st2" width="2.4" height="23.1"/>
<rect x="259.9" y="177.3" class="st2" width="14.3" height="2.4"/>
<rect x="885.1" y="614.4" class="st2" width="2.4" height="23.1"/>
<rect x="879.2" y="624.7" class="st2" width="14.3" height="2.4"/>
<circle class="st1" cx="42.1" cy="749.4" r="12.1"/>
<circle class="st1" cx="78.8" cy="795.3" r="7.1"/>
<path class="st2" d="M195.2,708.8c-58.8,0-106.6-48.4-106.6-108s47.8-108,106.6-108s106.6,48.4,106.6,108S254,708.8,195.2,708.8z
	 M195.2,495.3C137.8,495.3,91,542.7,91,600.9c0,58.2,46.7,105.5,104.2,105.5S299.4,659,299.4,600.9
	C299.4,542.7,252.7,495.3,195.2,495.3z"/>
<path class="st4" d="M300.6,600.9c0,59-47.2,106.7-105.3,106.7S90,659.8,90,600.9c0-7.5,0.8-14.9,2.3-22.2h206.3
	C300,586,300.7,593.4,300.6,600.9z"/>
<path class="st2" d="M195.2,708.8c-58.8,0-106.6-48.4-106.6-108c0-7.5,0.8-15.1,2.3-22.4l0.2-1h208.2l0.2,1
	c1.5,7.4,2.3,14.9,2.3,22.4C301.8,660.4,254,708.8,195.2,708.8z M93.1,579.9c-1.4,6.9-2.1,13.9-2.1,21
	c0,58.2,46.7,105.5,104.2,105.5S299.4,659,299.4,600.9c0-7-0.7-14.1-2.1-21H93.1z"/>
<path class="st4" d="M268.8,600.9c0,59-32.9,106.7-73.5,106.7s-73.6-47.8-73.6-106.7c0-7.4,0.5-14.8,1.6-22.2h144
	C268.4,586,268.9,593.4,268.8,600.9z"/>
<path class="st2" d="M195.2,708.8c-41.3,0-74.8-48.4-74.8-108c0-7.5,0.5-15,1.6-22.4l0.1-1.1h146.2l0.1,1.1
	c1.1,7.4,1.6,14.9,1.6,22.4C270,660.4,236.5,708.8,195.2,708.8z M124.2,579.9c-1,6.9-1.4,14-1.4,21c0,58.2,32.5,105.5,72.4,105.5
	s72.4-47.3,72.4-105.5c0-7-0.5-14-1.4-21H124.2z"/>
<polygon class="st2" points="161,598 146.1,623.8 175.9,623.8 "/>
<polygon class="st2" points="229.5,598 214.5,623.8 244.3,623.8 "/>
<path class="st2" d="M259.9,624.9c-3,33.5-31.1,59.1-64.7,59.1c-1.8,0-3.6,0-5.5-0.2c-5.9-0.4-11.6-1.7-17.1-3.7
	c-23.6-8.6-40.1-30.1-42.2-55.1c5.6,8.3,13,15.2,21.5,20.3c5.3,3.3,11.1,5.9,17,7.8c7.3,2.4,14.9,3.7,22.6,4c1.2,0,2.4,0,3.6,0
	c4.5,0,9-0.4,13.5-1.1c5.6-0.9,11-2.3,16.3-4.3c6.1-2.2,11.8-5.2,17.1-8.9C249,638,255.1,631.9,259.9,624.9z"/>
<path class="st4" d="M169,653v6h-17v-13.8C157.4,648.5,163.1,651.1,169,653z"/>
<path class="st4" d="M208.7,656v7.3h-17.1V657c1.2,0,2.4,0,3.6,0C199.6,657,204.2,656.7,208.7,656z"/>
<path class="st4" d="M242,642.9v12.1h-17.1v-3.2C230.9,649.5,236.7,646.5,242,642.9z"/>
<path class="st4" d="M226.9,669.8v6c-5.4,3-11.1,5.2-17.1,6.5v-12.5H226.9z"/>
<path class="st4" d="M189.7,671.3v12.5c-5.9-0.4-11.6-1.7-17.1-3.7v-8.7H189.7z"/>
<path class="st5" d="M513.2,899.6v-8.5c0-5.7-4.6-10.2-10.2-10.2h-28.4V892c-19.7,1.8-34.8,18.3-34.8,38.1h126.1v-30.4H513.2z"/>
<path class="st2" d="M567,931.2H438.5V930c-0.1-20,14.9-36.9,34.8-39.2v-11.2h29.7c6.3,0,11.5,5.1,11.5,11.5v7.3H567L567,931.2z
	 M441,928.8h123.6v-27.8H512v-9.8c0-5-4-9-9-9h-27.2v10.9h-1.1C455.9,894.6,441.4,910,441,928.8z"/>
<path class="st5" d="M713.8,891.6l-9.5-28.9l-50,16.5l-2.7-8.1c-1.8-5.4-7.5-8.3-12.9-6.5l-26.9,8.9l3.5,10.5
	c-18.2,7.9-27.3,28.3-21.1,47.1l67.3-22.2l0,0L713.8,891.6z"/>
<path class="st2" d="M593.2,932.8l-0.4-1.2c-6.4-19,2.6-39.7,20.8-48.1l-3.5-10.6l28.2-9.3c6-2,12.5,1.3,14.5,7.3c0,0,0,0,0,0
	l2.3,6.9l50-16.5l10.3,31.2L593.2,932.8z M613.2,874.3l3.4,10.4l-1,0.4c-17.2,7.3-26.2,26.4-20.8,44.4l117.4-38.7l-8.7-26.6
	l-50,16.5l-3-9.1c-1.6-4.7-6.6-7.3-11.4-5.7L613.2,874.3z"/>
<path class="st1" d="M407,123.1c4.6-0.7,8.5,1.7,11.9,7.2c3.3,5.4,3.5,10.2,0.5,14.2c7.1-2.9,12-0.4,14.7,7.5
	c2.7,7.9-2.5,15.2-15.6,22c-8.6-14.2-17.6-28.7-26.8-43.6C396.1,126.8,401.4,124.2,407,123.1z M402.1,133.9l7.5,11.6
	c5.1-3.6,6.7-7.3,4.6-11.3C412.1,130.2,408,130.1,402.1,133.9L402.1,133.9z M412.8,152.4l6.5,11.2c6.7-4.6,9.1-8.6,7.3-12
	C424.9,148.2,420.2,148.4,412.8,152.4L412.8,152.4z"/>
<path class="st1" d="M456.6,141.5c-4.1,5.3-8.9,6.8-14.5,4.3c-6-2.9-10.7-7.9-13.2-14.1c-3.3-7-3.2-12.9,0.2-17.9
	c2.9-4.8,8.8-7.1,14.2-5.5c6.1,1.4,10.8,5.9,14.3,13.6C461,129.6,460.6,136.1,456.6,141.5z M451.5,134.7c1.9-3.3,1.9-7.4,0-10.7
	c-1.4-3.8-4.6-6.6-8.5-7.7c-3.1-1.1-6.5,0.5-7.6,3.5c-0.1,0.2-0.2,0.5-0.2,0.7c-1.4,3.8-0.8,8,1.6,11.2c1.7,3.1,4.5,5.4,7.8,6.4
	C447.5,138.7,450.3,137.3,451.5,134.7z"/>
<path class="st1" d="M486.2,123.8c-4.1,5.3-8.9,6.8-14.5,4.3c-6-2.9-10.7-7.9-13.2-14.1c-3.3-7-3.2-12.9,0.2-17.9
	c2.9-4.8,8.8-7.1,14.2-5.5c6.1,1.4,10.8,5.9,14.3,13.6C490.6,111.9,490.3,118.5,486.2,123.8z M481.1,117.1c1.9-3.3,1.9-7.4,0-10.7
	c-1.4-3.8-4.6-6.6-8.5-7.7c-3.1-1.1-6.5,0.5-7.6,3.5c-0.1,0.2-0.2,0.5-0.2,0.7c-1.4,3.8-0.8,8,1.5,11.3c1.7,3.1,4.5,5.4,7.8,6.4
	C477.1,121.3,479.9,119.8,481.1,117.1z"/>
<path class="st1" d="M505.4,99.8C499,89.5,493.2,80.3,488,72.1l7.2-4.8c6.4,12.2,11.6,21.9,15.6,29.1L505.4,99.8z M511.3,111.8
	c-1.9-2.9-3.6-5.3-4.9-7.3l7.5-4.9l4.3,8L511.3,111.8z"/>
<rect x="194" y="578.7" class="st2" width="2.4" height="128.9"/>
</svg>
